<?xml version="1.0" encoding="UTF-8"?>
<svg xmlns="http://www.w3.org/2000/svg" xmlns:xlink="http://www.w3.org/1999/xlink" version="1.1" id="Ebene_1" x="0px" y="0px" viewBox="0 0 353.5 64" style="enable-background:new 0 0 353.5 64;" xml:space="preserve">
<style type="text/css">
	.st0{clip-path:url(#SVGID_00000140692980602925082540000010746306220955244673_);}
	.st1{clip-path:url(#SVGID_00000149340813130194194090000009829280292818717586_);fill:#575756;}
	.st2{clip-path:url(#SVGID_00000149340813130194194090000009829280292818717586_);fill:#57A7D6;}
	.st3{clip-path:url(#SVGID_00000149340813130194194090000009829280292818717586_);fill:#008BC7;}
	.st4{clip-path:url(#SVGID_00000149340813130194194090000009829280292818717586_);fill:#008EC9;}
	.st5{clip-path:url(#SVGID_00000149340813130194194090000009829280292818717586_);fill:#009AD2;}
	.st6{clip-path:url(#SVGID_00000149340813130194194090000009829280292818717586_);fill:#469CD0;}
	.st7{clip-path:url(#SVGID_00000149340813130194194090000009829280292818717586_);fill:#007BB5;}
	.st8{clip-path:url(#SVGID_00000149340813130194194090000009829280292818717586_);fill:#40A3D5;}
	.st9{clip-path:url(#SVGID_00000149340813130194194090000009829280292818717586_);fill:#79C6C0;}
	.st10{clip-path:url(#SVGID_00000149340813130194194090000009829280292818717586_);fill:#4FB5AE;}
	.st11{clip-path:url(#SVGID_00000149340813130194194090000009829280292818717586_);fill:#A7D5C2;}
	.st12{clip-path:url(#SVGID_00000149340813130194194090000009829280292818717586_);fill:#66C1BF;}
	.st13{clip-path:url(#SVGID_00000149340813130194194090000009829280292818717586_);fill:#6ABAB2;}
	.st14{clip-path:url(#SVGID_00000149340813130194194090000009829280292818717586_);fill:#8AC6C6;}
	.st15{clip-path:url(#SVGID_00000149340813130194194090000009829280292818717586_);fill:#98D1CB;}
	.st16{clip-path:url(#SVGID_00000149340813130194194090000009829280292818717586_);fill:#A4D8DE;}
	.st17{clip-path:url(#SVGID_00000149340813130194194090000009829280292818717586_);fill:#F9B342;}
	.st18{clip-path:url(#SVGID_00000149340813130194194090000009829280292818717586_);fill:#F7A833;}
	.st19{clip-path:url(#SVGID_00000149340813130194194090000009829280292818717586_);fill:#F7A823;}
	.st20{clip-path:url(#SVGID_00000149340813130194194090000009829280292818717586_);fill:#F5A225;}
	.st21{clip-path:url(#SVGID_00000149340813130194194090000009829280292818717586_);fill:#F39313;}
	.st22{clip-path:url(#SVGID_00000149340813130194194090000009829280292818717586_);fill:#F9B233;}
	.st23{clip-path:url(#SVGID_00000149340813130194194090000009829280292818717586_);fill:#F59D24;}
	.st24{clip-path:url(#SVGID_00000149340813130194194090000009829280292818717586_);fill:#FAC075;}
	.st25{clip-path:url(#SVGID_00000149340813130194194090000009829280292818717586_);fill:#ED6A5B;}
	.st26{clip-path:url(#SVGID_00000149340813130194194090000009829280292818717586_);fill:#E94F2D;}
	.st27{clip-path:url(#SVGID_00000149340813130194194090000009829280292818717586_);fill:#E63323;}
	.st28{clip-path:url(#SVGID_00000149340813130194194090000009829280292818717586_);fill:#EA4F3D;}
	.st29{clip-path:url(#SVGID_00000149340813130194194090000009829280292818717586_);fill:#E94F35;}
	.st30{clip-path:url(#SVGID_00000149340813130194194090000009829280292818717586_);fill:#E8412C;}
	.st31{clip-path:url(#SVGID_00000149340813130194194090000009829280292818717586_);fill:#E30613;}
</style>
<g>
	<g>
		<defs>
			<rect id="SVGID_1_" x="1.3" y="9.2" width="300.4" height="43.6"></rect>
		</defs>
		<clipPath id="SVGID_00000039855720905510458310000012682924847343364775_">
			<use xlink:href="#SVGID_1_" style="overflow:visible;"></use>
		</clipPath>
		<g xmlns="http://www.w3.org/2000/svg" style="clip-path:url(#SVGID_00000039855720905510458310000012682924847343364775_);">
			<defs>
				<rect id="SVGID_00000086690073562279522200000013047871737745075585_" x="1.3" y="9.2" width="300.4" height="43.6"/>
			</defs>
			<clipPath id="SVGID_00000168098544084400041470000014735047058819624102_">
				<use xmlns:xlink="http://www.w3.org/1999/xlink" xlink:href="#SVGID_00000086690073562279522200000013047871737745075585_" style="overflow:visible;"/>
			</clipPath>
			<polygon style="clip-path:url(#SVGID_00000168098544084400041470000014735047058819624102_);fill:#57A7D6;" points="26.4,35.8      25.4,34.9 25.4,38.5    "/>
			<polygon style="clip-path:url(#SVGID_00000168098544084400041470000014735047058819624102_);fill:#008BC7;" points="25.4,38.5      25.4,39.7 28.8,38.3 26.4,35.8    "/>
			<polygon style="clip-path:url(#SVGID_00000168098544084400041470000014735047058819624102_);fill:#008EC9;" points="32,38.1      32,37 30.8,37.5    "/>
			<polygon style="clip-path:url(#SVGID_00000168098544084400041470000014735047058819624102_);fill:#009AD2;" points="30.8,37.5      28.8,38.3 26.4,35.8 26.5,35.4    "/>
			<polygon style="clip-path:url(#SVGID_00000168098544084400041470000014735047058819624102_);fill:#008EC9;" points="25.4,34.9      26.4,35.8 26.5,35.4    "/>
			<polygon style="clip-path:url(#SVGID_00000168098544084400041470000014735047058819624102_);fill:#57A7D6;" points="32,37      30.8,37.5 25.4,34.9 32,34.9    "/>
			<polygon style="clip-path:url(#SVGID_00000168098544084400041470000014735047058819624102_);fill:#469CD0;" points="26.5,35.4      26.7,34.9 25.4,34.9    "/>
			<polygon style="clip-path:url(#SVGID_00000168098544084400041470000014735047058819624102_);fill:#007BB5;" points="30.7,40.2      28.8,38.3 25.5,39.7 25.4,39.7 25.4,41.4 32,41.4    "/>
			<polygon style="clip-path:url(#SVGID_00000168098544084400041470000014735047058819624102_);fill:#40A3D5;" points="30.7,40.2      32,41.4 32,41.4 32,40.3    "/>
			<polygon style="clip-path:url(#SVGID_00000168098544084400041470000014735047058819624102_);fill:#40A3D5;" points="32,40.3      32,38.1 30.8,37.5 28.8,38.3 30.7,40.2    "/>
			<polygon style="clip-path:url(#SVGID_00000168098544084400041470000014735047058819624102_);fill:#79C6C0;" points="62.6,40.5      63.5,41.4 63.5,37.9    "/>
			<polygon style="clip-path:url(#SVGID_00000168098544084400041470000014735047058819624102_);fill:#4FB5AE;" points="63.5,37.9      63.5,36.7 60.1,38 62.6,40.5    "/>
			<polygon style="clip-path:url(#SVGID_00000168098544084400041470000014735047058819624102_);fill:#A7D5C2;" points="57,38.3      57,39.3 58.1,38.8    "/>
			<polygon style="clip-path:url(#SVGID_00000168098544084400041470000014735047058819624102_);fill:#66C1BF;" points="57,34.9      60.1,38 63.5,36.7 63.5,34.9    "/>
			<polygon style="clip-path:url(#SVGID_00000168098544084400041470000014735047058819624102_);fill:#6ABAB2;" points="58.1,38.8      60.1,38 62.6,40.5 62.4,40.9    "/>
			<polygon style="clip-path:url(#SVGID_00000168098544084400041470000014735047058819624102_);fill:#8AC6C6;" points="63.5,41.4      62.6,40.5 62.4,40.9    "/>
			<polygon style="clip-path:url(#SVGID_00000168098544084400041470000014735047058819624102_);fill:#98D1CB;" points="57,39.3      58.1,38.8 63.5,41.4 57,41.4    "/>
			<polygon style="clip-path:url(#SVGID_00000168098544084400041470000014735047058819624102_);fill:#A4D8DE;" points="62.4,40.9      62.2,41.4 63.5,41.4    "/>
			<polygon style="clip-path:url(#SVGID_00000168098544084400041470000014735047058819624102_);fill:#79C6C0;" points="60.1,38      57,34.9 57,34.9 57,38.3 58.1,38.8    "/>
			<polygon style="clip-path:url(#SVGID_00000168098544084400041470000014735047058819624102_);fill:#F9B342;" points="90.1,39.6      87.7,40.5 86.8,41.4 92,41.4    "/>
			<polygon style="clip-path:url(#SVGID_00000168098544084400041470000014735047058819624102_);fill:#F7A833;" points="90.1,39.6      89.4,38.8 87.7,40.5    "/>
			<polygon style="clip-path:url(#SVGID_00000168098544084400041470000014735047058819624102_);fill:#F7A823;" points="90.1,39.6      92,41.4 93.3,41.4 93.3,38.3    "/>
			<polygon style="clip-path:url(#SVGID_00000168098544084400041470000014735047058819624102_);fill:#F5A225;" points="86.8,40.9      86.8,41.4 87.7,40.5    "/>
			<polygon style="clip-path:url(#SVGID_00000168098544084400041470000014735047058819624102_);fill:#F39313;" points="87.7,40.5      89.4,38.8 86.8,36.2 86.8,40.9    "/>
			<polygon style="clip-path:url(#SVGID_00000168098544084400041470000014735047058819624102_);fill:#F7A833;" points="93.3,34.9      90.9,34.9 92.6,35.7    "/>
			<polygon style="clip-path:url(#SVGID_00000168098544084400041470000014735047058819624102_);fill:#F9B233;" points="92.6,35.7      89.4,38.8 90.1,39.6 93.3,38.3 93.3,36    "/>
			<polygon style="clip-path:url(#SVGID_00000168098544084400041470000014735047058819624102_);fill:#F59D24;" points="86.8,34.9      86.8,36.2 89.4,38.8 92.6,35.7 90.9,34.9    "/>
			<polygon style="clip-path:url(#SVGID_00000168098544084400041470000014735047058819624102_);fill:#FAC075;" points="93.3,36      93.3,34.9 92.6,35.7    "/>
			<polygon style="clip-path:url(#SVGID_00000168098544084400041470000014735047058819624102_);fill:#ED6A5B;" points="119.8,39.4      118.8,40.4 119.8,41.4    "/>
			<polygon style="clip-path:url(#SVGID_00000168098544084400041470000014735047058819624102_);fill:#E94F2D;" points="119.8,41.4      119.8,41.4 118.8,40.4 117.8,41.4    "/>
			<polygon style="clip-path:url(#SVGID_00000168098544084400041470000014735047058819624102_);fill:#E63323;" points="113.3,37.7      113.3,41.4 117.8,41.4 118.8,40.4 115.1,36.7    "/>
			<polygon style="clip-path:url(#SVGID_00000168098544084400041470000014735047058819624102_);fill:#EA4F3D;" points="115.1,36.7      113.3,34.9 113.3,34.9 113.3,37.7    "/>
			<polygon style="clip-path:url(#SVGID_00000168098544084400041470000014735047058819624102_);fill:#ED6A5B;" points="115.1,34.9      113.3,34.9 115.1,36.7 117.1,35.7    "/>
			<polygon style="clip-path:url(#SVGID_00000168098544084400041470000014735047058819624102_);fill:#E94F35;" points="117.1,35.7      115.1,36.7 118.8,40.4 119.8,39.4 119.8,36.7    "/>
			<polygon style="clip-path:url(#SVGID_00000168098544084400041470000014735047058819624102_);fill:#E8412C;" points="115.1,34.9      117.1,35.7 118.6,34.9    "/>
			<polygon style="clip-path:url(#SVGID_00000168098544084400041470000014735047058819624102_);fill:#E30613;" points="118.6,34.9      117.1,35.7 119.8,36.7 119.8,34.9    "/>
			<path style="clip-path:url(#SVGID_00000168098544084400041470000014735047058819624102_);fill:#575756;" d="M22.8,19.8     c0.1,1.3,0.1,2.5,0.2,3.8c-1.3-0.2-2.5-0.4-3.4-0.6c0.2,1.9,0.8,3.8,0.5,5.6c-0.7,4.6-5.5,7.3-10.4,6.2c-1-0.2-1.7,0-2.3,0.6     c-1.2,1.1-0.9,2.6,0.7,3c1.1,0.3,2.3,0.3,3.5,0.4c2.2,0.2,4.5,0.1,6.6,0.6c4.8,1,6.3,5.9,3,9.6c-2.9,3.2-6.7,4.1-10.7,3.8     c-1.9-0.1-3.8-0.6-5.5-1.3c-2.4-1-3.8-3.1-3.6-5.2c0.3-2.5,1.8-3.9,4.3-4.6c-1.5-1.1-2.8-2.2-2.5-4.2c0.3-1.9,1.7-2.8,3.3-3.6     c-1.6-1.2-2.7-2.6-3.2-4.6c-1.2-5.1,2.2-9.8,7.5-10c1.9-0.1,3.8,0.6,5.7,0.8c1.6,0.1,3.3,0,5,0C21.9,19.9,22.2,19.9,22.8,19.8      M12.1,42.3c-0.9,0-1.9,0-3,0c-1.7,0-3.7,1.6-3.9,3c-0.3,1.4,0.7,2.8,2.6,3.6c2,0.9,4.1,1.1,6.2,0.6c1.4-0.4,3-0.9,4.1-1.8     c2-1.6,1.2-4.2-1.3-4.8C15.3,42.5,13.8,42.5,12.1,42.3 M16.5,27.1c0-3-1.8-4.9-4.7-4.9c-2.8,0-4.8,2-4.8,4.9c0,3,1.9,4.9,4.9,4.9     C14.6,32,16.5,30.1,16.5,27.1"/>
			<path style="clip-path:url(#SVGID_00000168098544084400041470000014735047058819624102_);fill:#575756;" d="M53.9,41.7     c-2.5,0.2-4.6-0.2-5.7-2.8c-1.6,1.6-3.2,2.8-5.4,3c-3.3,0.3-6.3-1.5-7.1-4.4c-0.9-3,0.4-6.1,3.6-7.4c2.4-1,5-1.3,7.6-1.9     c0.4-0.1,0.8-0.1,1.2-0.1c0.6-3.3-0.9-5.3-4.2-5.4c-2.7-0.1-5,1-7.3,2.3c-0.2-1-0.5-1.8-0.6-2.7c0-0.3,0.2-0.9,0.5-1.1     c3.6-2.1,7.4-2.7,11.3-1.5c2.9,0.9,4.3,3.2,4.4,7c0.1,3.1,0,6.2,0,9.4c0,2.1,0,2.1,1.9,2.6c0,0.7,0,1.4,0,2.1     C54,41.1,53.9,41.3,53.9,41.7 M48.2,30.6c-0.9,0.1-1.6,0.1-2.3,0.3c-1.7,0.5-3.4,1-4.9,1.7c-1.4,0.7-1.8,2.2-1.4,3.6     c0.4,1.3,1.4,2.1,2.8,2.3c1.7,0.2,3.2-0.1,4.6-1.2c0.5-0.4,1.1-0.9,1.1-1.4C48.3,34.2,48.2,32.5,48.2,30.6"/>
			<path style="clip-path:url(#SVGID_00000168098544084400041470000014735047058819624102_);fill:#575756;" d="M82.2,20.6     c-0.3,1.2-0.6,2.3-0.9,3.3c-1.9-0.4-3.7-0.9-5.6-1.2c-0.9-0.1-2,0-2.8,0.4c-0.7,0.3-1.3,1.1-1.5,1.9c-0.3,1,0.1,1.9,1.1,2.4     c1.4,0.6,2.9,1.1,4.3,1.6c0.8,0.3,1.5,0.5,2.3,0.8c2.2,1,3.6,2.7,3.7,5.2c0,2.6-1.1,4.6-3.4,5.8c-3.9,2.1-7.8,1.2-11.6-0.5     c-0.2-0.1-0.5-0.6-0.4-0.8c0.2-1,0.5-1.9,0.7-2.7c1.9,0.6,3.6,1.2,5.4,1.5c1.1,0.2,2.4-0.1,3.6-0.3c1.2-0.3,1.8-1.2,1.9-2.4     c0.1-1.2-0.6-2-1.6-2.5c-1-0.5-2-0.8-3-1.1c-1.2-0.4-2.4-0.8-3.5-1.4c-2-1-3.2-2.5-3.2-4.8c-0.1-2.5,1-4.3,3-5.5     c2.7-1.6,5.6-1.4,8.6-0.7C80.2,19.8,81.1,20.3,82.2,20.6"/>
			<path style="clip-path:url(#SVGID_00000168098544084400041470000014735047058819624102_);fill:#575756;" d="M99.2,19.6     c-0.1-0.9,0-3.7,0-4.7h3.7v4.8h6.7c-0.1,1.3-0.1,2.3-0.2,3.5h-6.9c0,3,0,5.9,0,8.8c0,1-0.1,2.1-0.1,3.1c0,2.4,1.1,3.5,3.5,3.2     c1-0.1,2-0.4,3.2-0.6c0.2,1.1,0.4,2.1,0.7,3.2c-2.6,1-5.1,1.3-7.7,0.5c-2.2-0.7-3.3-2.6-3.3-5.5c0-3.7,0.2-7.4,0.3-11.1     c0-0.4,0-0.9,0-1.5c-1.1-0.1-2.2-0.1-3.4-0.3v-2.7L99.2,19.6z"/>
		</g>
	</g>
</g>
</svg>
