<?xml version="1.0" encoding="UTF-8" standalone="no"?>
<svg
   xmlns:dc="http://purl.org/dc/elements/1.1/"
   xmlns:cc="http://creativecommons.org/ns#"
   xmlns:rdf="http://www.w3.org/1999/02/22-rdf-syntax-ns#"
   xmlns:svg="http://www.w3.org/2000/svg"
   xmlns="http://www.w3.org/2000/svg"
   id="svg10"
   version="1.1"
   viewBox="0 0 438 254"
   height="254"
   width="438">
  <metadata
     id="metadata16">
    <rdf:RDF>
      <cc:Work
         rdf:about="">
        <dc:format>image/svg+xml</dc:format>
        <dc:type
           rdf:resource="http://purl.org/dc/dcmitype/StillImage" />
        <dc:title></dc:title>
      </cc:Work>
    </rdf:RDF>
  </metadata>
  <defs
     id="defs14" />
  <style
     id="style2"
     type="text/css">.st0{fill-rule:evenodd;clip-rule:evenodd;fill:#878A8D;} .st1{fill:#878A8D;}</style>
  <g
     id="g30">
    <path
       class="st0"
       d="m 43.6,131.6 c 0,26.5 15.1,43.4 42.4,43.4 10.4,0 18.5,-1 25.7,-3.1 l -1,-27.6 c -3.6,2.3 -9.6,3.6 -15.9,3.6 -13.3,0 -16.4,-10.7 -16.4,-22.1 V 0 L 43.6,11.2 Z M 159.9,91.8 c 1.6,-17.9 11.4,-31.5 30.9,-31.5 19.5,0 27.3,14.6 28.3,31.5 z m 82.7,44.2 c -13,7.3 -27.6,13.5 -44.5,13.5 -21.6,0 -36.7,-12.2 -38.2,-33.8 h 92.6 c 0,-46.8 -14,-80.9 -63.7,-80.9 -41.6,0 -62.1,32 -62.1,70.7 0,43.9 25.7,69.4 69.9,69.4 18.7,0 33.3,-3.6 46,-10.7 z M 271.5,10.9 h 34.8 v 161 H 271.5 Z M 426,39.3 c -9.6,-2.9 -19.8,-4.4 -33.8,-4.4 -41.9,0 -64.7,30.7 -64.7,69.4 0,40.8 22.1,70.7 66,70.7 14.3,0 24.7,-1.3 34.8,-4.4 l -1.6,-28.9 c -6,2.6 -16.9,6.2 -26.8,6.2 -24.4,0 -36.1,-19 -36.1,-43.7 0,-25.2 13.8,-42.4 35.4,-42.4 10.7,0 17.4,2.1 23.7,4.9 z M 85.4,62 122.6,61.9 V 39.2 l -37.2,0.2 z"
       id="path4"
       style="fill:#000000" />
    <circle
       class="st1"
       cx="18.5"
       cy="50.099998"
       r="18.4"
       id="circle6"
       style="fill:#000000" />
  </g>
</svg>
