<?xml version="1.0" encoding="UTF-8"?>
<svg id="Layer_1" xmlns="http://www.w3.org/2000/svg" version="1.1" viewBox="0 0 100 32.7">
  <!-- Generator: Adobe Illustrator 29.1.0, SVG Export Plug-In . SVG Version: 2.1.0 Build 142)  -->
  <defs>
    <style>
      .st0 {
        stroke: #000;
        stroke-linejoin: round;
      }

      .st0, .st1 {
        fill: none;
        stroke-linecap: round;
        stroke-width: 4px;
      }

      .st1 {
        display: none;
        stroke: #231f20;
        stroke-miterlimit: 10;
      }
    </style>
  </defs>
  <path class="st1" d="M-39.4,12.4s11.5-1.2,20.4-.8,1.8.1,16.8,2.3c15.8,1.1,13,2.4,28.4,2.6s25.4,2.1,28.1,2c16.1-1,4.8.6,20.4-1.8,10.8-1.7,12.3-2.2,13-4.8,1-3.5-14.7-5.6-14.4-2,.3,3.6,15.3.9,16.9,5.4.9,2.7-14.3,6.7-14.3,6.7"/>
  <path class="st0" d="M3.1,16.4c9.8-1.3,10.5-2.2,20.3-1.8s9.2,1.2,18.4,1.8,14-1.1,22.6-.8c15.9.6,26-.4,26.4-5.5,1.6-2.1-19.4-10.6-24.2-2.2-1.6,2.8,28.5,3,28.7,8.4.2,5.3-23.4,11.1-23.7,11.6"/>
</svg>