<?xml version="1.0" encoding="utf-8"?>
<!-- Generator: Adobe Illustrator 26.0.2, SVG Export Plug-In . SVG Version: 6.00 Build 0)  -->
<svg version="1.1" id="Layer_1" xmlns="http://www.w3.org/2000/svg" xmlns:xlink="http://www.w3.org/1999/xlink" x="0px" y="0px"
	 viewBox="0 0 601 578" style="enable-background:new 0 0 601 578;" xml:space="preserve">
<style type="text/css">
	.st0{fill:none;stroke:#000000;stroke-linecap:round;stroke-linejoin:round;}
</style>
<g id="_0">
	<g id="a">
		<path class="st0" d="M512.5,37c6.2,154.2,7,335.6,2.6,489.8"/>
	</g>
	<g id="b">
		<path class="st0" d="M514.8,34c9.7,157-4.7,335.2,1.5,494.9"/>
	</g>
	<g id="c">
		<path class="st0" d="M512.7,35.2c13.7,152.6-4.9,339.9,2.8,492.9"/>
	</g>
	<g id="d">
		<path class="st0" d="M511.5,36.7c16.7,155.1-3.4,333.8,1.2,489.8"/>
	</g>
	<g id="e">
		<path class="st0" d="M517.1,37.2c-1.3,154.4-2.7,334.3-4,488.8"/>
	</g>
	<g id="f">
		<path class="st0" d="M515,35.2c1.7,66.9,3.3,149.6,2,216.4c-1.8,89.3-5.1,183.1-2.5,276.4"/>
	</g>
	<g id="g">
		<path class="st0" d="M515.4,37.7c0.7,155.9-0.2,331.9-2.8,487.8"/>
	</g>
	<g id="h">
		<path class="st0" d="M513.7,36.2c0.6,41.1,1.3,103.9,1.9,145c0.7,46,1.4,92.1-0.1,138c-2.2,69.3-1.8,132.6,0.7,207.8"/>
	</g>
</g>
<g id="_1">
	<g id="a_00000174565592320663938070000013480991396057672598_">
		<path class="st0" d="M50.4,503.9c154.2-6.2,335.6-7,489.8-2.6"/>
	</g>
	<g id="b_00000150087650265295165330000017004018586828674956_">
		<path class="st0" d="M47.4,501.6c157-9.7,335.2,4.7,494.9-1.5"/>
	</g>
	<g id="c_00000082339168507274794570000002095046268046213761_">
		<path class="st0" d="M48.5,503.7c152.6-13.7,339.9,4.9,492.9-2.8"/>
	</g>
	<g id="d_00000035532077198527674310000000937137791395070392_">
		<path class="st0" d="M50,504.9c155.1-16.7,333.8,3.4,489.8-1.2"/>
	</g>
	<g id="e_00000036951758704079755310000001099600885124512175_">
		<path class="st0" d="M50.5,499.3c154.4,1.3,334.3,2.7,488.8,4"/>
	</g>
	<g id="f_00000052818581385829293670000008102244057291808430_">
		<path class="st0" d="M48.5,501.4c66.9-1.7,149.6-3.3,216.4-2c89.3,1.8,183.1,5.1,276.4,2.5"/>
	</g>
	<g id="g_00000135654741820222365160000002413922690821407668_">
		<path class="st0" d="M51,501c155.9-0.7,331.9,0.2,487.8,2.8"/>
	</g>
	<g id="h_00000151510580799926504980000016915870602470539681_">
		<path class="st0" d="M49.5,502.7c41.1-0.6,103.9-1.3,145-1.9c46-0.7,92.1-1.4,138,0.1c69.3,2.2,132.6,1.8,207.8-0.7"/>
	</g>
</g>
</svg>
