<?xml version="1.0" encoding="UTF-8"?>
<svg id="Layer_1" xmlns="http://www.w3.org/2000/svg" version="1.1" viewBox="0 0 127.1 103.9">
  <!-- Generator: Adobe Illustrator 29.1.0, SVG Export Plug-In . SVG Version: 2.1.0 Build 142)  -->
  <defs>
    <style>
      .st0 {
        stroke: #231f20;
        stroke-miterlimit: 10;
      }
    </style>
  </defs>
  <g>
    <path class="st0" d="M38.4,71.3c-7.1,2.6-14.4,5.1-20.5,9.6-1.4.8-2,3.3.1,3.4,1.8-.8,3.5-1.8,5.3-2.4,5.8-2,11.7-3.6,17-6.6,2.6-1.3.6-5.2-2-4h0Z"/>
    <path class="st0" d="M51,78.6c-1.4.6-1.3,2.5-2.3,3.4-1.2,1.1-1.8,2.6-2.9,3.7-2,2.2-4.1,4.2-5.5,6.5-.6,1.3,2.1,1.2,2.8,0,3.3,0,10.5-7.4,11-11,1.2-1.5-1.2-3.4-3.2-2.5h.1Z"/>
    <path class="st0" d="M106.1,76.8c.4,0,.7-.3.6-.7-.3-.5-.9-.6-1.3-.9-1.3-.5-2.5-1-3.8-1.5-1.7-.5-3.6-.6-5.4-.8-2.4,0-3,3.8-.7,4.1,1.4,0,2.8.3,4.2.3,2.1,0,4.3-.4,6.4-.6h0Z"/>
    <path class="st0" d="M81.1,94.1c.2.3.5.4.7,0,.2-.5,0-1-.2-1.5-.4-1.3-.8-2.6-1.2-3.9-.6-1.7-1.5-3.3-2.3-4.9-1.2-2.1-3.8-.5-2.7,1.7.7,1.2,1.3,2.5,2,3.6.8,1.9,2.5,3.3,3.7,5Z"/>
  </g>
  <g>
    <path class="st0" d="M115.8,27.6c.5-.2.8-.7.4-1.1-.6-.6-1.4-.4-2.1-.5-1.9,0-3.8-.2-5.8,0-2.5.2-5,.8-7.5,1.4-3.3,1-2.2,6.3,1.1,5.6,1.9-.5,3.8-.9,5.7-1.5,2.8-.9,5.4-2.5,8.2-3.7h0Z"/>
    <path class="st0" d="M90.2,13.3c0-.4-.2-.7-.6-.6-.5.2-.7.8-1,1.2-.7,1.2-1.3,2.4-1.9,3.6-.7,1.7-1.1,3.5-1.5,5.2-.4,2.4,3.4,3.5,4,1.2.3-1.4.6-2.7.9-4.1.3-2.1,0-4.3.2-6.4h0Z"/>
    <path class="st0" d="M52.7,11c0-.3-.4-.5-.6-.2-.2.5,0,1,0,1.5.2,1.4.4,2.7.7,4.1.4,1.8,1,3.5,1.6,5.1.9,2.2,3.3,1.1,2.6-1.2-.5-1.3-.9-2.6-1.4-3.9-.8-1.9-1.9-3.6-2.8-5.4h0Z"/>
    <path class="st0" d="M18,28.4c-.4,0-.7.4-.5.8.4.5,1,.5,1.5.7,1.4.3,2.8.6,4.3.9,1.9.2,3.8,0,5.7,0,2.6-.3,2.5-4.3,0-4.3s-3,0-4.4.3c-2.1-.2-4.4,1.1-6.6,1.6Z"/>
  </g>
</svg>