<?xml version="1.0" encoding="UTF-8"?>
<svg id="Layer_1" xmlns="http://www.w3.org/2000/svg" version="1.1" viewBox="0 0 127.1 103.9">
  <!-- Generator: Adobe Illustrator 29.1.0, SVG Export Plug-In . SVG Version: 2.1.0 Build 142)  -->
  <defs>
    <style>
      .st0 {
        fill: #000000;
        stroke: #000000;
        stroke-linecap: round;
        stroke-miterlimit: 10;
      }
    </style>
  </defs>
  <g>
    <path class="st0" d="M82.7,31.1c.8-7.5,1.8-15.1.4-22.6,0-1.6-2.1-3.3-3.1-1.4,0,1.9,0,3.9-.2,5.9-.8,6.1-2,12-1.6,18.2,0,2.9,4.4,2.9,4.4,0h0Z"/>
    <path class="st0" d="M98.4,37c1.9-.7,2.6-2.4,3.9-3.6,4.5-4.5,8.5-9.6,11.1-14.8.7-2-2.9-2.5-3.9-.5-5.4,4.9-11,9.6-14.8,15.4-1.7,2.2.8,4.6,3.6,3.6h.1Z"/>
    <path class="st0" d="M118.6,44c.4-.3.6-.9,0-1.2-.7-.3-1.5,0-2.2.2-1.8.5-3.7,1.1-5.5,1.7-2.3,1-4.5,2.4-6.6,3.7-2.8,2,0,6.7,2.8,5,1.7-1,3.3-2.1,4.9-3.2,2.4-1.8,4.3-4.2,6.5-6.2h0Z"/>
  </g>
</svg>