<?xml version="1.0" encoding="UTF-8"?><svg id="_0" xmlns="http://www.w3.org/2000/svg" viewBox="0 0 243.36 56.49"><path d="M88.65,5.31c-27,2.88-51.14,8.28-75.22,20.83-7.92,4.13-12.17,10.42-11.07,15.34.84,3.75,7.74,6.73,11.45,7.73,9.88,2.65,21.2,1.9,31.43,2.04,60.97.81,126.97-2.08,177.91-9.95,5.54-.86,13.79-4.31,16.08-9.43,1.93-4.32.16-9.03-3.58-11.94s-10.91-5.02-15.56-5.94C159.1,1.97,89.76.14,30,17.24" fill="none" stroke="#181716" stroke-linecap="round" stroke-linejoin="round"/><path d="M89.81,4.89c-24.52,2.7-48.65,8.83-71.45,18.15-3.71,1.52-7.46,3.16-10.48,5.78s-5.28,6.41-5.13,10.4c.16,4.42,2.62,6.25,6.19,8.9,7.71,5.72,65.93,5.05,86.56,4.15,47.24-2.06,77.93-3.42,123.13-9.25,4.94-.64,11.88-3.45,16.06-6.14,4.18-2.68,7.14-7.91,5.61-12.62-1.73-5.32-7.93-7.58-13.38-8.99-51.84-13.43-126.45-15.27-193.03.04" fill="none" stroke="#181716" stroke-linecap="round" stroke-linejoin="round"/><path d="M88.54,4.69C63.7,7.65,35.87,14.19,13.33,25.01c-5.67,2.72-12.01,6.9-12.01,13.19,0,4.01,2.82,7.61,6.3,9.61s7.55,2.68,11.53,3.2c23.63,3.12,47.6,2,71.41.88,40.84-1.92,72.19-5.19,113.03-7.11,6.98-.33,23.5-2.44,29.5-6.02s10.36-8.39,7.36-14.71c-2.78-5.86-9.96-7.91-16.32-9.15C139.8-1.55,93.32,3,29.55,17.2" fill="none" stroke="#181716" stroke-linecap="round" stroke-linejoin="round"/><path d="M83.2,5.94c-26,.93-45.41,7.91-68.65,19.61-5.41,2.73-11.42,6.94-11.21,12.99.13,3.62,2.64,6.82,5.74,8.68s6.74,2.59,10.32,3.14c15.31,2.36,30.9,1.99,46.39,1.42,53.44-1.94,106.01-3.9,159.11-10.23,5.16-.62,11.9-3.95,14.35-8.54,2.3-4.32.16-9.94-3.6-13.08s-9.49-5.33-14.26-6.39C155.76-1.09,93.87-1.75,29.01,15.97" fill="none" stroke="#181716" stroke-linecap="round" stroke-linejoin="round"/><path d="M93.83,4.29c-26.33,1.55-52.36,8.18-76.23,19.42-3.46,1.63-6.93,3.39-9.65,6.07s-4.63,6.44-4.22,10.24c.51,4.7,4.46,8.46,8.89,10.14,4.42,1.68,23.4,3.56,28.13,3.51,36.86-.4,55.31-1.17,92.14-2.93,29.22-1.4,62.82-5.68,91.59-11,4.04-.75,8.18-1.62,11.6-3.88s6.01-6.27,5.43-10.34c-.97-6.73-17.19-12.14-23.88-13.32C169.08,3.64,125.38-1.35,32.77,14.86" fill="none" stroke="#181716" stroke-linecap="round" stroke-linejoin="round"/><path d="M81.95,5.96C59.14,10.09,36.75,14.41,15.36,23.33c-5.38,2.24-11.4,7.84-12.16,13.62-.52,4,1.9,7.95,5.2,10.28s7.35,3.31,11.32,4.03c14.71,2.63,29.78,2.15,44.72,1.66,40.49-1.33,80.47-3.96,120.96-5.29,13.57-.45,27.39-1.59,40.31-5.73,6.28-2.01,13.66-4.23,13.84-10.82.1-3.78-2.23-7.3-5.26-9.58s-7.32-4.29-10.94-5.42C174.41.82,114.48-4.35,33.87,15.3" fill="none" stroke="#181716" stroke-linecap="round" stroke-linejoin="round"/><path d="M84.77,5.47c-26.59,2.9-50.09,8.68-74.11,21.97-3.74,2.07-7.58,5.44-7.84,12.03-.13,3.24,3.54,7.08,6.11,8.65,6.35,3.9,23.71,4.64,26.72,4.68,69.67.85,113.11-1.8,182.61-10.67,3.81-.49,11.16-2.4,14.63-4.25s6.89-4.87,7.29-8.96c.4-4.19-3.64-8.56-6.96-10.68-7.03-4.5-22.49-6.59-26.33-7.32C146.54-.6,89.08-.24,31.08,16.97" fill="none" stroke="#181716" stroke-linecap="round" stroke-linejoin="round"/></svg>