<?xml version="1.0" encoding="UTF-8"?><svg id="_0" xmlns="http://www.w3.org/2000/svg" viewBox="0 0 115.04 63.8"><path d="M46.33,9.12c-6.23,1.62-12.51,3.26-18.28,6.2s-11.07,7.32-14.09,13.25-3.43,13.54-.04,19.25c3.83,6.45,11.4,9.21,18.51,10.71,20.86,4.4,43.01,1.84,62.45-7.22,4.13-1.93,8.2-4.18,11.48-7.45s5.72-7.67,5.93-12.4c.27-5.87-2.94-11.49-7.33-15.16s-9.83-5.66-15.27-7.14c-22.89-6.22-47.74-4.17-69.42,5.71-4.28,1.95-8.5,4.24-11.85,7.64s-5.77,8.06-5.71,12.94c.06,5.19,2.92,10.02,6.73,13.33s8.51,5.29,13.23,6.86c25.59,8.51,54.35,6.02,78.25-6.79,3.65-1.96,6.98-5.04,8.88-8.85s2.89-11.11-.81-12.96" fill="none" stroke="#181716" stroke-linecap="round" stroke-linejoin="round"/><path d="M46.33,9.12c-6.23,1.62-12.51,3.26-18.28,6.2s-11.07,7.32-14.09,13.25-3.43,13.54-.04,19.25c3.83,6.45,11.4,9.21,18.51,10.71,20.86,4.4,43.01,1.84,62.45-7.22,4.13-1.93,8.2-4.18,11.48-7.45s5.72-7.67,5.93-12.4c.27-5.87-2.94-11.49-7.33-15.16s-9.83-5.66-15.27-7.14C66.82,2.95,42.72,3.44,21.04,13.32c-4.28,1.95-8.5,4.24-11.85,7.64s-5.77,8.06-5.71,12.94c.06,5.19,2.92,10.02,6.73,13.33s9.03,7.17,13.75,8.74c25.59,8.51,49.08,8.41,72.98-4.39,3.65-1.96,9.8-7.98,11.71-11.78s2.89-11.48-.81-13.33" fill="none" stroke="#181716" stroke-linecap="round" stroke-linejoin="round"/><path d="M48.12,8.8c-6.23,1.62-15.14,3.24-20.91,6.18s-10.89,7.62-13.91,13.55-3.46,13.29-.07,18.99c3.83,6.45,11.95,8.88,19.07,10.38,20.86,4.4,42.99,4.28,62.43-4.79,4.13-1.93,9.02-4.61,12.29-7.88s6.04-8.61,6.26-13.35c.27-5.87-3.86-11.11-8.25-14.78s-9.95-5.89-15.39-7.36c-22.89-6.22-47.68-4.76-69.36,5.12-4.28,1.95-8.5,4.24-11.85,7.64s-5.77,8.06-5.71,12.94c.06,5.19,2.64,10.96,6.45,14.27s8.97,5.57,13.69,7.14c25.59,8.51,54.16,4.79,78.07-8.01,3.65-1.96,6.98-5.04,8.88-8.85s2.59-12.8-1.1-14.65" fill="none" stroke="#181716" stroke-linecap="round" stroke-linejoin="round"/><path d="M46.13,8.36c-6.23,1.62-13.15,3.32-18.92,6.26s-10.67,7.62-13.69,13.55-2.21,12.92,1.18,18.63c3.83,6.45,10.85,9.17,17.96,10.67,20.86,4.4,42.79,2.9,62.23-6.16,4.13-1.93,7.3-4.05,10.58-7.31s5.75-7.93,5.96-12.66c.27-5.87-2.07-11.35-6.46-15.02s-9.83-5.66-15.27-7.14C66.82,2.95,43.81,3.71,22.13,13.59c-4.28,1.95-9.46,5.51-12.81,8.91s-5.95,8-5.89,12.88c.06,5.19,1.78,10.75,5.6,14.06s6.67,4.62,11.4,6.19c25.59,8.51,55.57,6.59,79.47-6.22,3.65-1.96,9.19-5.74,11.09-9.54s2.96-11.18-.74-13.03" fill="none" stroke="#181716" stroke-linecap="round" stroke-linejoin="round"/><path d="M49.59,8.95c-4.79.57-14.43,2.8-20.2,5.74s-12.41,6.88-15.43,12.81-4.21,13.11-.82,18.82c3.83,6.45,12.18,10.71,19.29,12.21,20.86,4.4,43.01,1.84,62.45-7.22,4.13-1.93,8.2-4.18,11.48-7.45s5.72-7.67,5.93-12.4c.27-5.87-2.94-11.49-7.33-15.16s-9.31-6.25-14.74-7.73c-22.89-6.22-48.19-4.36-69.87,5.52-4.28,1.95-9.38,5.07-12.74,8.47s-4.18,8.15-4.12,13.03c.06,5.19,2.89,10.09,6.7,13.4s7.28,5.72,12,7.29c25.59,8.51,54.8,6.84,78.7-5.96,3.65-1.96,7.15-5.03,9.06-8.83s2.59-11.11-1.1-12.96" fill="none" stroke="#181716" stroke-linecap="round" stroke-linejoin="round"/><path d="M43.96,9.74c-6.23,1.62-11.49,2.38-17.26,5.32s-10.53,7.69-13.55,13.62-3.54,12.77-.15,18.48c3.83,6.45,12.32,9.87,19.43,11.37,20.86,4.4,43.01,1.84,62.45-7.22,4.13-1.93,8.2-4.18,11.48-7.45s5.72-7.67,5.93-12.4c.27-5.87-2.15-11.78-6.54-15.45s-10.61-5.96-16.05-7.44c-22.89-6.22-47.82-4.36-69.5,5.52-4.28,1.95-8.44,5.02-11.79,8.42s-5.06,8.27-5,13.15c.06,5.19,2.22,10.53,6.04,13.84s7.94,5.42,12.66,6.99c25.59,8.51,54.8,6.25,78.7-6.55,3.65-1.96,8.11-5.77,10.01-9.57s1.49-13.02-2.21-14.87" fill="none" stroke="#181716" stroke-linecap="round" stroke-linejoin="round"/></svg>