<?xml version="1.0" encoding="UTF-8"?>
<svg id="Layer_1" xmlns="http://www.w3.org/2000/svg" version="1.1" viewBox="0 0 127.1 134.2">
  <!-- Generator: Adobe Illustrator 29.1.0, SVG Export Plug-In . SVG Version: 2.1.0 Build 142)  -->
  <defs>
    <style>
      .st0 {
        stroke: #231f20;
        stroke-miterlimit: 10;
      }
    </style>
  </defs>
  <path class="st0" d="M19.8,20.5c5.8,5.4,14.5,7.8,22.2,6.8,5.8-1.2.3-16.1-1.8-19.5-1.3-3-5.9-6.7-8.1-2.7-1.1,2.5-.6,5.4-.3,8-3.9-.6-11.7-3.4-14.4,0-1.2,2.5.6,5.5,2.5,7.3ZM20.5,15.2c3.7.1,7.2,1.7,10.7,2.6,1.9.7,4.8.7,5.2-1.8.2-2.5-3.7-8.2-2-10.4,2.7,1.5,2.9,6.8,3.6,9.6.6,3,.2,6.2,1.2,9.2-.3,0-.5,0-.8-.1-5.7-1-15-3.7-18-9.1Z"/>
  <path class="st0" d="M84.9,44.6c1.3.9,3.9,3.5,6.1,2.7,0,0,.1.1.2.2.4.4,1.1.6,1.8.7,2.9,0,5.2-1.5,7.5-2.5,6.5-3.4,12.4-8.6,11.9-14.3-.5-2-3.3-3.5-6.3-3.4-4.7.4-8.1,3-10.8,5.3-5.9-8.5-16.9-7.5-16.2,2.2.4,3.3,2.7,6.5,5.8,9.1ZM84.1,34c.3-.8.4-2.7,1.7-3,4.1,1,5.2,8.6,10.6,6.2,1.1-.8,1.5-1.9,2.3-2.8,1.1-1.3,2.5-2.5,4.3-3.5,2.3-1.5,6.5-1.7,6.7.9-.5,2.5-3.2,4.7-5.6,6.5-2.9,1.9-6.3,3.6-9.4,5.3-1,.6-2.8,1.3-3.5,2.2,0,0-.2,0-.3-.1-.1,0-.2,0-.3,0-4-3.2-6.8-7.3-6.3-11.5Z"/>
  <path class="st0" d="M50.4,129.6c2.8-.8,4.7-3.5,5.5-5.4.5-1.6.2-3.1.1-4.6-.2-3.5-.5-7.1-2-10.1-1.1-2.3-3.4-5.7-8.2-3.3-4.6,2.7-4.5,7.1-5.1,10.2-5.5.6-11.2.5-16.9,2.9-6.4,3.1-3.8,7.7-.4,9.2,6.3,3.2,17.3,4.7,27.1,1.1ZM39.6,121.9c4,.3,8.8-2.5,7.8-5.7-.4-1.7-.8-3.4-.9-5.2.1-.7-.3-2.4,1-2.7,4.3,1.6,4,14.6.4,18.6-8.3.4-16.5-.5-21.6-4.1,4.6-.8,9-.7,13.4-.9Z"/>
</svg>