<?xml version="1.0" encoding="UTF-8"?>
<svg id="Layer_1" xmlns="http://www.w3.org/2000/svg" version="1.1" viewBox="0 0 85 395">
  <!-- Generator: Adobe Illustrator 30.0.0, SVG Export Plug-In . SVG Version: 2.1.1 Build 123)  -->
  <defs>
    <style>
      .st0 {
        fill: none;
        stroke: #000;
        stroke-linecap: round;
        stroke-linejoin: round;
        stroke-width: 3px;
      }
    </style>
  </defs>
  <path class="st0" d="M7.5,18.5c.8,8,65.52-15.67,66.32.53.81,15.58-44.8,37.27-56.96,63.65-4.72,10.25,28.5,5.64,32.04,24.12,0,6.6-6.51,44.3-6.91,51.2-.8,12.8,12.22,26.19,11.12,38.09-1.7,18.6-10.62,76.24-10.62,76.24,0,0-11.14,95.13-1.77,105.29,5.11.03,8.35-22.69,3.46-23.41-2.28-.33-4.81,27.65-9.96,27.6-4.18-.04-8.81-23.11-9.61-24.72"/>
  <path class="st0" d="M8.81,17.97c.9,9.1,63.69-14.11,64.39,2.39.6,16.2-56.61,40.02-57.11,61.72-.3,12.8,33.51,8.97,33.61,22.87.7,16.8-10.35,34.51-8.95,54.41,1.3,17.8,13.95,20.33,14.15,34.83-5.76,33.31-27.5,183.85-15.17,183.43,3.46-1.06,10.11-18.51,3.98-23.15-4.81-3.64-4.11,27.17-10.14,26.64-4.42-.39-8.85-22.62-9.95-23.92"/>
  <path class="st0" d="M7.5,16.59c.8,8,63.17-13.69,64.38,3.99.87,18.71-54.93,32.4-54.09,65.97,1.41,9.03,33.95,1.77,30.96,19.26-8,46.8-6.26,52.16-6.26,56.16,3.15,7.71,13.25,9.33,9.98,35.54-9.41,75.28-24.13,188.79-8.89,179.71,3.6-.3,5.9-21.61,1.6-23-3.62-1.17-4.81,27.65-9.49,26.77-3.55-.67-9.48-23.39-9.88-23.79"/>
  <path class="st0" d="M8.97,18.98c.7,7.4,63.14-16.17,65.04.73,1.8,15.84-52,36.36-56.35,63.24-2.95,18.19,31.22.79,31.28,24.04,1.3,21.3-5.49,34.76-6.83,49.46s9.61,16.65,10.61,33.75c-3.93,38.72-23.01,188.14-12.13,188.05,1.3-.01,12.71-16.24,4.08-24.69-2.21-2.16-6.7,28.19-9.66,28.23-5.1.07-9.97-24.4-10.37-24.7"/>
  <path class="st0" d="M7.5,18.5c2.16,4.09,64.3-10.87,66.5-.5,3.03,14.28-61.22,48.48-57.22,65.64s28.87,5.78,31.5,20.48-6.76,42.87-6.27,55.38c.14,3.67,16.01,17.8,10.67,44.61-14.2,71.29-25.51,179.45-11,173.53,4.76-2.5,6.34-22.4,2.63-23.56s-5.07,28.33-9.33,27.71c-4.76-.69-10.77-25.21-9.87-25.2"/>
  <path class="st0" d="M7.5,18.5c.6,6.7,65.62-16.97,66.32.53.5,11.7-59.33,50.24-58.43,64.44,6.93,17.5,31.19,6.58,32.31,19.36,0,5.5-5.21,54.29-5.21,60.09,0,7.4,10.72,18.11,10.61,32.49s-9.19,41.85-8.09,61.05c-2.82,51.22-18.82,118.43-4.29,121.16,5.4,1.5,9.27-21.87,3.46-23.54-3.62-1.04-4.55,27.78-9.2,27.71-4.81-.07-11.27-22.96-10.67-24"/>
  <path class="st0" d="M9.68,16.59c.9,9.8,62.23-12.06,62.73,5.04.4,14.4-58.07,43.09-57.87,62.19.1,11.9,35.07,6.6,35.17,20.1,2.2,15.6-8.06,28.17-7.66,53.37.2,10.6,11.18,24.94,10.94,35.54s-9.38,60.28-8.98,68.18c-1.76,60.36-15.39,115-3.27,116.62,2.02,1.64,11.34-18.99,3.22-24.13-2.76-1.75-4.19,28.34-9.56,28.35-5.28.02-10.17-23.85-10.67-24.15"/>
</svg>