<?xml version="1.0" encoding="UTF-8"?>
<svg id="Layer_1" xmlns="http://www.w3.org/2000/svg" version="1.1" viewBox="0 0 85 248">
  <!-- Generator: Adobe Illustrator 30.0.0, SVG Export Plug-In . SVG Version: 2.1.1 Build 123)  -->
  <defs>
    <style>
      .st0 {
        stroke-miterlimit: 10;
      }

      .st0, .st1 {
        fill: none;
        stroke: #000;
        stroke-linecap: round;
        stroke-width: 2px;
      }

      .st1 {
        stroke-linejoin: round;
      }
    </style>
  </defs>
  <g>
    <path class="st1" d="M36.5,209.5c0-.1-6,1-7,8-.6,4,3,11,8,11s9-4,9-9-2-8-6-8c-8,0-8.66,7.13-8.66,7.13,0,0,.59,7.84,5.59,7.84s7.06-5.32,7.06-6.32-.47-6.58-2.47-6.58-2.77-.13-4.46.52-2.9,1.95-3.29,4.25-.26,2.99.91,4.81,4.14,1.52,5.32.65,2.22-2.51,2.39-3.47-.25-4.25-.82-4.55-2.53.01-3.08.13c-1.39.3-1.99,1.26-1.99,1.26,0,0-.48.87-.56,1.39s-.3,2.12.22,2.69,2.49.56,2.85.43,1.14-1.52,1.36-1.91.28-1.82-.36-2.08-2.99,1.73-2.53,2.12"/>
    <path class="st1" d="M37.5,209.5c0-.1-6,1-7,8-.6,4,3,11,8,11s9-4,9-9-2-8-6-8c-8,0-8.66,7.13-8.66,7.13,0,0,.59,7.84,5.59,7.84s7.06-5.32,7.06-6.32-.47-6.58-2.47-6.58-2.77-.13-4.46.52-2.9,1.95-3.29,4.25-.26,2.99.91,4.81,4.14,1.52,5.32.65,2.22-2.51,2.39-3.47-.25-4.25-.82-4.55-2.53.01-3.08.13c-1.39.3-1.99,1.26-1.99,1.26,0,0-.48.87-.56,1.39s-.3,2.12.22,2.69,2.49.56,2.85.43,1.14-1.52,1.36-1.91.28-1.82-.36-2.08-2.99,1.73-2.53,2.12"/>
    <path class="st1" d="M35.5,209.5c0-.1-6,1-7,8-.6,4,3,11,8,11s9-4,9-9-2-8-6-8c-8,0-8.66,7.13-8.66,7.13,0,0,.59,7.84,5.59,7.84s7.06-5.32,7.06-6.32-.47-6.58-2.47-6.58-2.77-.13-4.46.52-2.9,1.95-3.29,4.25-.26,2.99.91,4.81,4.14,1.52,5.32.65,2.22-2.51,2.39-3.47-.25-4.25-.82-4.55-2.53.01-3.08.13c-1.39.3-1.99,1.26-1.99,1.26,0,0-.48.87-.56,1.39s-.3,2.12.22,2.69,2.49.56,2.85.43,1.14-1.52,1.36-1.91.28-1.82-.36-2.08-2.99,1.73-2.53,2.12"/>
    <path class="st1" d="M36.5,208.5c0-.1-6,1-7,8-.6,4,3,11,8,11s9-4,9-9-2-8-6-8c-8,0-8.66,7.13-8.66,7.13,0,0,.59,7.84,5.59,7.84s7.06-5.32,7.06-6.32-.47-6.58-2.47-6.58-2.77-.13-4.46.52-2.9,1.95-3.29,4.25-.26,2.99.91,4.81,4.14,1.52,5.32.65,2.22-2.51,2.39-3.47-.25-4.25-.82-4.55-2.53.01-3.08.13c-1.39.3-1.99,1.26-1.99,1.26,0,0-.48.87-.56,1.39s-.3,2.12.22,2.69,2.49.56,2.85.43,1.14-1.52,1.36-1.91.28-1.82-.36-2.08-2.99,1.73-2.53,2.12"/>
    <path class="st1" d="M36.5,210.5c0-.1-6,1-7,8-.6,4,3,11,8,11s9-4,9-9-2-8-6-8c-8,0-8.66,7.13-8.66,7.13,0,0,.59,7.84,5.59,7.84s7.06-5.32,7.06-6.32-.47-6.58-2.47-6.58-2.77-.13-4.46.52-2.9,1.95-3.29,4.25-.26,2.99.91,4.81,4.14,1.52,5.32.65,2.22-2.51,2.39-3.47-.25-4.25-.82-4.55-2.53.01-3.08.13c-1.39.3-1.99,1.26-1.99,1.26,0,0-.48.87-.56,1.39s-.3,2.12.22,2.69,2.49.56,2.85.43,1.14-1.52,1.36-1.91.28-1.82-.36-2.08-2.99,1.73-2.53,2.12"/>
    <path class="st1" d="M37.5,208.5c0-.1-6,1-7,8-.6,4,3,11,8,11s9-4,9-9-2-8-6-8c-8,0-8.66,7.13-8.66,7.13,0,0,.59,7.84,5.59,7.84s7.06-5.32,7.06-6.32-.47-6.58-2.47-6.58-2.77-.13-4.46.52-2.9,1.95-3.29,4.25-.26,2.99.91,4.81,4.14,1.52,5.32.65,2.22-2.51,2.39-3.47-.25-4.25-.82-4.55-2.53.01-3.08.13c-1.39.3-1.99,1.26-1.99,1.26,0,0-.48.87-.56,1.39s-.3,2.12.22,2.69,2.49.56,2.85.43,1.14-1.52,1.36-1.91.28-1.82-.36-2.08-2.99,1.73-2.53,2.12"/>
    <path class="st1" d="M35.5,210.5c0-.1-6,1-7,8-.6,4,3,11,8,11s9-4,9-9-2-8-6-8c-8,0-8.66,7.13-8.66,7.13,0,0,.59,7.84,5.59,7.84s7.06-5.32,7.06-6.32-.47-6.58-2.47-6.58-2.77-.13-4.46.52-2.9,1.95-3.29,4.25-.26,2.99.91,4.81,4.14,1.52,5.32.65,2.22-2.51,2.39-3.47-.25-4.25-.82-4.55-2.53.01-3.08.13c-1.39.3-1.99,1.26-1.99,1.26,0,0-.48.87-.56,1.39s-.3,2.12.22,2.69,2.49.56,2.85.43,1.14-1.52,1.36-1.91.28-1.82-.36-2.08-2.99,1.73-2.53,2.12"/>
  </g>
  <g>
    <path class="st0" d="M53.35,14.77s-1.85.73-4.35,2.23-21.5,21.5-21.5,36.5,24,28,28.5,9.5c-1.5-14.5-30.5,6.5-31,23s30.5,29.5,24,15c-4.5-5.5-23.5,28.5-23,48s17,48,17,48"/>
    <path class="st0" d="M54.35,14.77s-1.85.73-4.35,2.23-21.5,21.5-21.5,36.5,24,28,28.5,9.5c-1.5-14.5-30.5,6.5-31,23s30.5,29.5,24,15c-4.5-5.5-23.5,28.5-23,48s17,48,17,48"/>
    <path class="st0" d="M52.35,14.77s-1.85.73-4.35,2.23-21.5,21.5-21.5,36.5,24,28,28.5,9.5c-1.5-14.5-30.5,6.5-31,23s30.5,29.5,24,15c-4.5-5.5-23.5,28.5-23,48s17,48,17,48"/>
    <path class="st0" d="M53.35,13.77s-1.85.73-4.35,2.23-21.5,21.5-21.5,36.5,24,28,28.5,9.5c-1.5-14.5-30.5,6.5-31,23s30.5,29.5,24,15c-4.5-5.5-23.5,28.5-23,48s17,48,17,48"/>
    <path class="st0" d="M53.35,16.77s-1.85.73-4.35,2.23-21.5,21.5-21.5,36.5,24,28,28.5,9.5c-1.5-14.5-30.5,6.5-31,23s30.5,29.5,24,15c-4.5-5.5-23.5,28.5-23,48s17,48,17,48"/>
    <path class="st0" d="M54.35,15.77s-1.85.73-4.35,2.23-21.5,21.5-21.5,36.5,24,28,28.5,9.5c-1.5-14.5-30.5,6.5-31,23s30.5,29.5,24,15c-4.5-5.5-23.5,28.5-23,48s17,48,17,48"/>
  </g>
</svg>