<?xml version="1.0" encoding="UTF-8"?>
<svg id="Layer_1" xmlns="http://www.w3.org/2000/svg" version="1.1" viewBox="0 0 85 395">
  <!-- Generator: Adobe Illustrator 30.0.0, SVG Export Plug-In . SVG Version: 2.1.1 Build 123)  -->
  <defs>
    <style>
      .st0 {
        fill: none;
        stroke: #000;
        stroke-linecap: round;
        stroke-linejoin: round;
        stroke-width: 3px;
      }
    </style>
  </defs>
  <path class="st0" d="M42.4,7.4c.8,8,5.8,20.5,6.6,36.7,1.6,30.7-1.3,73.2-1.1,113.2,0,6.6.5,13.3.1,20.2-.8,12.8-2,26.2-3.1,38.1-1.7,18.6-23.4,86.9-28.4,63.2-7.8-36.7,33.4-44.7,29.1-13.9-9.87,38.83-8.36,95.87,1.01,106.03,5.11.03,8.35-22.69,3.46-23.41-2.28-.33-4.81,27.65-9.96,27.6-4.18-.04-8.81-23.11-9.61-24.72"/>
  <path class="st0" d="M43.1,5.8c.9,9.1,4.4,21.4,5.1,37.9.6,16.2,1.7,35.6,1.2,57.3-.3,12.8-.2,26.4-.1,40.3.7,16.8-3.3,29.3-1.9,49.2,1.3,17.8-25.3,110.7-30.9,88.2-8.6-34.5,28.7-38.9,28.9-24.4-5.76,33.31-11.12,117.05,1.21,116.63,3.46-1.06,10.11-18.51,3.98-23.15-4.81-3.64-4.11,27.17-10.14,26.64-4.42-.39-8.85-22.62-9.95-23.92"/>
  <path class="st0" d="M42.6,2.5c.8,8,4.9,22.9,5.7,42.8,1.5,38.5-.5,93.1-.4,133.2,3.3,21.1-24.3,121.1-30.4,102-13.3-41.8,28.6-36,28.6-29-8.24,37.37-17.08,120.09,2.36,119.03,3.6-.3,5.9-21.61,1.6-23-3.62-1.17-4.81,27.65-9.49,26.77-3.55-.67-9.48-23.39-9.88-23.79"/>
  <path class="st0" d="M40.8,6.1c.7,7.4,5.1,19.7,7,36.6,4.1,36,.5,88.3.6,129.8,1.3,21.3-21.5,126.8-30.8,108-12.2-24.4,26.6-45.3,27.6-28.2-3.93,38.72-9.63,119.35,1.25,119.26,1.3-.01,12.71-16.24,4.08-24.69-2.21-2.16-6.7,28.19-9.66,28.23-5.1.07-9.97-24.4-10.37-24.7"/>
  <path class="st0" d="M43,10.6c3.5,23,8.5,77.1,4.5,139,0,6.1-.9,12.8-.1,20.1,1.6,16-12.9,120.6-28.5,112.3-19.7-10.6,25.6-52.9,26.4-30.4-5.45,69.94-11.04,124.11,2.26,119.35,4.76-2.5,6.34-22.4,2.63-23.56s-5.07,28.33-9.33,27.71c-4.76-.69-10.77-25.21-9.87-25.2"/>
  <path class="st0" d="M41.2,7c.6,6.7,6.1,16.9,6.8,34.4.5,11.7-1.2,28.8-.3,43,3.1,49-.1,84.9-1.4,108.4,0,5.5-2.5,14.7-2.5,20.5,0,7.4-17.6,77.9-24.1,68.9-16.3-22.7,24.5-48.2,25.6-29-2.82,51.22-13.23,115.01,1.31,117.73,5.4,1.5,9.27-21.87,3.46-23.54-3.62-1.04-4.55,27.78-9.2,27.71s-11.27-22.96-10.67-24"/>
  <path class="st0" d="M42.5,7.2c.9,9.8,4.5,19.9,5,37,.4,14.4,1.4,30.8,1.6,49.9.1,11.9.3,27,.4,40.5,2.2,15.6-3.1,39.6-2.7,64.8.2,10.6-20.3,96.7-28.6,81.9-15.5-27.3,25-40.5,25.4-32.6-1.76,60.36-9.11,120.62,3.01,122.23,2.02,1.64,11.34-18.99,3.22-24.13-2.76-1.75-4.19,28.34-9.56,28.35s-10.17-23.85-10.67-24.15"/>
</svg>