<?xml version="1.0" encoding="UTF-8"?>
<svg id="a" xmlns="http://www.w3.org/2000/svg" viewBox="0 0 55.82 75.4">
    <path d="m1.46,68.37c4.8-4.14,16.01-13.64,22.97-40.2s3.35-40.14-12.44-7.07-8.93,46.93,4.6,45.94,24.46-13.58,30.59-39.64,2.76-42.46-12.48-4.58-19.57,56.51,2.43,50.41c24.7-6.85,27.5-46.33-20.65-9.17"
          fill="none" stroke="#181716" stroke-linecap="round" stroke-linejoin="round" />
    <path d="m.65,68.74c4.8-4.14,16.38-13.86,23.34-40.42s3.42-41.39-12.37-8.32-8.56,48.04,4.97,47.04,24.98-12.88,31.1-38.94,1.03-42.22-14.21-4.34-17.58,54.98,4.42,48.88c24.7-6.85,27.53-45.77-20.61-8.61"
          fill="none" stroke="#181716" stroke-linecap="round" stroke-linejoin="round" />
    <path d="m2.07,67.85c4.8-4.14,13.66-9.97,21.43-36.31C31.94,2.92,28.37-13.66,12.57,19.41s-8.37,48.33,5.15,47.34,23.05-12.18,29.18-38.24,2.77-44.25-12.47-6.38-19.86,57.78,2.13,51.68c24.7-6.85,29.01-48.66-20.1-9.75"
          fill="none" stroke="#181716" stroke-linecap="round" stroke-linejoin="round" />
    <path d="m1.97,68.74c4.8-4.14,16.31-14.08,23.26-40.64s2.83-39.04-12.96-5.96-9.7,45.46,3.83,44.47,25.67-13.84,31.8-39.9,2.21-40.6-13.03-2.72-19.13,54.83,2.87,48.74c24.7-6.85,25.55-44.02-21.28-8.65"
          fill="none" stroke="#181716" stroke-linecap="round" stroke-linejoin="round" />
    <path d="m.5,68.88c4.8-4.14,16.64-12.91,23.59-39.47s3.24-39.84-12.55-6.76-8.45,46.2,5.08,45.2,24.13-12.15,30.26-38.21,3.29-45.53-12.15-7.73c-16.46,40.29-18.47,56.82,3.53,50.72,24.7-6.85,25.25-45.4-22.9-8.25"
          fill="none" stroke="#181716" stroke-linecap="round" stroke-linejoin="round" />
    <path d="m1.46,69.03c4.8-4.14,16.23-13.71,23.19-40.27s3.28-42.2-12.52-9.13-8.23,48.77,5.3,47.78,24.57-14.72,30.7-40.79.81-40.67-14.43-2.8c-15.24,37.88-18.47,53.95,2.64,49.57,27.03-5.62,28.28-46.49-19.86-9.33"
          fill="none" stroke="#181716" stroke-linecap="round" stroke-linejoin="round" />
</svg>