<?xml version="1.0" encoding="utf-8"?>
<!-- Generator: Adobe Illustrator 26.0.2, SVG Export Plug-In . SVG Version: 6.00 Build 0)  -->
<svg version="1.1" id="Layer_1" xmlns="http://www.w3.org/2000/svg" xmlns:xlink="http://www.w3.org/1999/xlink" x="0px" y="0px"
	 viewBox="0 0 34.5 501" style="enable-background:new 0 0 34.5 501;" xml:space="preserve">
<style type="text/css">
	.st0{fill:none;stroke-linecap:round;stroke-linejoin:round;}
</style>
<g id="a">
	<path class="st0" d="M4.2,6.6c6.2,154.2,7,335.6,2.6,489.8"/>
</g>
<g id="b">
	<path class="st0" d="M6.5,3.6c9.7,157-4.7,335.2,1.5,494.9"/>
</g>
<g id="c">
	<path class="st0" d="M4.4,4.7c13.7,152.6-4.9,339.9,2.8,492.9"/>
</g>
<g id="d">
	<path class="st0" d="M3.2,6.2C19.9,161.3-0.2,340,4.4,496"/>
</g>
<g id="e">
	<path class="st0" d="M8.8,6.7C7.5,161.1,6.1,341,4.8,495.5"/>
</g>
<g id="f">
	<path class="st0" d="M6.7,4.7c1.7,66.9,3.3,149.6,2,216.4c-1.8,89.3-5.1,183.1-2.5,276.4"/>
</g>
<g id="g">
	<path class="st0" d="M7.1,7.2C7.8,163.1,6.9,339.1,4.3,495"/>
</g>
<g id="h">
	<path class="st0" d="M5.4,5.7c0.6,41.1,1.3,103.9,1.9,145c0.7,46,1.4,92.1-0.1,138C5,358,5.4,421.3,7.9,496.5"/>
</g>
</svg>
