<?xml version="1.0" encoding="utf-8"?>
<!-- Generator: Adobe Illustrator 26.0.2, SVG Export Plug-In . SVG Version: 6.00 Build 0)  -->
<svg version="1.1" xmlns="http://www.w3.org/2000/svg" xmlns:xlink="http://www.w3.org/1999/xlink" x="0px" y="0px"
	 viewBox="0 0 89.8 168.5" style="enable-background:new 0 0 89.8 168.5;" xml:space="preserve">
<style type="text/css">
	.st0{fill:none;stroke:#000000;stroke-linecap:round;stroke-linejoin:round;}
</style>
<g id="a">
	<path class="st0" d="M41.3,17.9c2.2,8.5,5.3,32.7,5.5,55.2c0.2,24.7,2.6,55.2,1.6,78.3"/>
	<path class="st0" d="M42,17.3c2.2,8.6,4,27.5,4.1,50c0.2,24.7,3.6,62.6,2.5,85.6"/>
	<path class="st0" d="M41.5,16.1c2.2,8.6,5.2,42.4,5.3,64.8c0.2,24.7,1.6,46.1,0.6,69.2"/>
	<path class="st0" d="M40.6,17.9c2.3,8.5,6.3,38.3,6.4,60.7c0.2,24.7,2.9,50,1.8,73.1"/>
	<path class="st0" d="M41.9,19.1c2.2,8.6,4.3,28.8,4.5,51.2c0.2,24.7,2.6,58.5,1.5,81.6"/>
	<path class="st0" d="M41.9,17c2.2,8.5,5.3,47.4,5.5,69.8c0.2,24.7,1.3,40.1,0.2,63.2"/>
	<path class="st0" d="M42.9,19.6c2.2,8.5,3.2,25,3.3,47.5c0.2,24.7,2.7,62.3,1.7,85.4"/>
</g>
<g id="Layer_2">
</g>
</svg>
