<?xml version="1.0" encoding="UTF-8"?>
<svg id="Layer_1" xmlns="http://www.w3.org/2000/svg" version="1.1" viewBox="0 0 157 77.3">
  <!-- Generator: Adobe Illustrator 29.1.0, SVG Export Plug-In . SVG Version: 2.1.0 Build 142)  -->
  <defs>
    <style>
      .st0 {
        fill: none;
        opacity: .8;
        stroke: #231f20;
        stroke-linecap: round;
        stroke-miterlimit: 10;
        stroke-width: 5px;
      }
    </style>
  </defs>
  <path class="st0" d="M11.6,25c-.6-.4-11.1,25.5-7.8,25.5,1.8,0,7.2-9.4,17.5-18.9,11.4-10.5,24.5-22.7,26.1-21.6s-7.4,10.7-14.1,20.7-12.4,20.5-9.5,18.7c2.6-1.6,7-9.1,14.6-15.9,8.8-7.9,18.3-16.1,19.3-15.3s-6.4,10.4-10.9,19.5c-4.1,8.4-5.9,16-2.1,14.5s5.7-8.9,13.6-16.4c12.4-11.8,30.9-24.6,31.5-22,.5,2-9.2,12.1-17,22.9-8.8,12.4-15.8,25.6-13,26.1,2.3.5,8.5-13,22.8-26.7C100.7,18.9,127.6,1.5,128.6,3.6c.4.8-15.4,15-27.1,32.1-12.3,18-19,40.9-14.4,37.9s12.6-19,19.3-26.4c15.3-16.9,46.4-33.8,47.2-34.6h0"/>
</svg>