<svg viewBox="0 0 350 22" fill="none" xmlns="http://www.w3.org/2000/svg" preserveAspectRatio="xMidYMid meet" style="stroke-dasharray: 2697; stroke-dashoffset: 4045.5; display: block;"><path d="M30.1558 9.03367C60.2325 8.48266 90.3141 8.16676 120.395 7.73214C173.447 6.9656 226.502 6.2852 279.559 5.6497C290.014 5.52446 313.388 4.51675 327.046 5.17247C333.428 5.47887 339.892 6.53308 346.24 6.69092C346.812 6.70513 349.256 6.61772 347.175 7.12476C338.624 9.20834 328.217 8.96712 319.318 9.42412C277.683 11.5623 236.249 12.4375 194.555 13.7192C158.439 14.8293 50.3254 20.9609 86.368 19.012C161.273 14.9619 237.098 13.7192 312.214 13.7192C313.561 13.7192 323.449 13.7192 315.704 13.7192C292.279 13.7192 268.887 12.9278 245.47 12.6346C189.956 11.9395 134.508 14.2681 79.0143 14.5001C57.0661 14.5918 35.2608 16.0619 13.3296 16.0619C-42.9003 16.0619 125.559 11.0092 181.717 9.03367C217.097 7.78906 322.905 0.801449 287.535 2.17896C210.355 5.18481 132.619 3.56726 55.3329 3.56726C48.2163 3.56726 40.553 2.99331 33.4588 3.61064C31.6432 3.76863 30.2064 4.16817 32.8979 4.52171C41.3197 5.62791 49.7762 6.25193 58.3243 6.69092C126.167 10.1751 195.42 10.1338 263.231 5.91C276.862 5.06095 290.444 5.12909 304.112 5.12909C322.806 5.12909 266.797 6.73262 248.15 7.64537C208.118 9.60488 168.372 13.5995 128.371 15.6281C103.197 16.9047 77.9956 17.6876 52.8401 19.012C47.8452 19.275 29.2939 20.7321 44.8009 19.5326C78.542 16.9227 113.153 17.3109 147.067 16.6693C184.587 15.9595 222.482 15.9671 259.928 14.0662C270.616 13.5237 302.604 13.9434 292.022 12.7647C281.888 11.6359 271.188 12.1573 260.987 12.1573C231.927 12.1573 202.861 12.0328 173.802 12.2007C149.334 12.3421 123.902 12.4734 99.7044 15.281" stroke="#FF2936" stroke-width="3" stroke-linecap="round"></path></svg>