<?xml version="1.0" encoding="UTF-8"?><svg xmlns="http://www.w3.org/2000/svg" viewBox="0 0 500 16.09"><g id="a"><path d="m4.9,10.97c154.18-6.18,335.58-7.04,489.82-2.57" fill="none" stroke="#181716" stroke-linecap="round" stroke-linejoin="round"/></g><g id="b"><path d="m1.89,8.73C158.86-.96,337.09,13.44,496.76,7.23" fill="none" stroke="#181716" stroke-linecap="round" stroke-linejoin="round"/></g><g id="c"><path d="m2.92,10.78c152.57-13.69,339.85,4.86,492.85-2.8" fill="none" stroke="#181716" stroke-linecap="round" stroke-linejoin="round"/></g><g id="d"><path d="m4.44,11.95c155.15-16.63,333.84,3.45,489.82-1.18" fill="none" stroke="#181716" stroke-linecap="round" stroke-linejoin="round"/></g><g id="e"><path d="m4.92,6.34c154.46,1.35,334.35,2.7,488.81,4.05" fill="none" stroke="#181716" stroke-linecap="round" stroke-linejoin="round"/></g><g id="f"><path d="m2.91,8.46c66.87-1.67,149.56-3.33,216.43-1.98,89.28,1.8,183.13,5.11,276.41,2.46" fill="none" stroke="#181716" stroke-linecap="round" stroke-linejoin="round"/></g><g id="g"><path d="m5.43,8.12c155.95-.71,331.88.2,487.81,2.72" fill="none" stroke="#181716" stroke-linecap="round" stroke-linejoin="round"/></g><g id="h"><path d="m3.91,9.78c41.09-.64,103.88-1.27,144.97-1.91,46.01-.71,92.05-1.42,138.04.08,69.35,2.26,132.6,1.87,207.82-.67" fill="none" stroke="#181716" stroke-linecap="round" stroke-linejoin="round"/></g></svg>