<?xml version="1.0" encoding="UTF-8"?><svg id="_0" xmlns="http://www.w3.org/2000/svg" viewBox="0 0 141.33 16.09"><path d="M3.91,10.74c9.01.99,18.1.02,27.12-.77,35.46-3.11,71.17-3.43,106.68-.98" fill="none" stroke="#94c11a" stroke-linecap="round" stroke-linejoin="round"/><path d="M3.91,9.81c9.01.99,31.6.24,40.63-.55,35.46-3.11,59.46-1.9,94.97.55" fill="none" stroke="#181716" stroke-linecap="round" stroke-linejoin="round"/><path d="M2.69,11.52c9.39-.11,17.81-1.14,26.83-1.93,35.46-3.11,70.84-1.82,108.19-.61" fill="none" stroke="#181716" stroke-linecap="round" stroke-linejoin="round"/><path d="M5.78,10.69c9.01.99,41.52-1.82,50.58-2.15,36.22-1.34,40.8-3.7,78.74.26" fill="none" stroke="#181716" stroke-linecap="round" stroke-linejoin="round"/><path d="M4.67,9.81c9.01.99,18.25,1.54,27.28.74,35.46-3.11,68.3-4.39,107.5-2.18" fill="none" stroke="#181716" stroke-linecap="round" stroke-linejoin="round"/><path d="M2.96,10.14c9.01.99,19.52,1.38,28.55.59,35.46-3.11,88.07-3.73,105.02-3.08" fill="none" stroke="#181716" stroke-linecap="round" stroke-linejoin="round"/><path d="M3.91,10.42c9.01.99,38.36-1.93,47.53-1.93,35.6,0,50.19-2.65,85.97-.6" fill="none" stroke="#181716" stroke-linecap="round" stroke-linejoin="round"/></svg>