<svg xmlns="http://www.w3.org/2000/svg" id="Layer_1" data-name="Layer 1" viewBox="0 0 512 512"><style>@media (prefers-color-scheme:dark){.a{fill:#000}}</style><path fill="#fff" d="M186.69 360.6A67.43 67.43 0 0 1 150 350.38a72.66 72.66 0 0 1-25.63-27.73Q115 305.16 115 283t10.22-39.76A75.65 75.65 0 0 1 153 215.39q17.49-10.21 39.34-10.22t39.21 10.22a76 76 0 0 1 27.58 27.87Q269.31 260.9 269.3 283h-10.92q0 22.13-9.38 39.63a72.8 72.8 0 0 1-25.62 27.73 67.5 67.5 0 0 1-36.69 10.24m5.6-25.21a47.8 47.8 0 0 0 25.49-6.86 48.8 48.8 0 0 0 17.64-18.76 55.3 55.3 0 0 0 6.44-26.77 55.9 55.9 0 0 0-6.44-27 48.87 48.87 0 0 0-17.64-18.76 50.51 50.51 0 0 0-50.83 0A49.4 49.4 0 0 0 149 256a54.9 54.9 0 0 0-6.59 27 54.3 54.3 0 0 0 6.59 26.77 49.35 49.35 0 0 0 18 18.76 48 48 0 0 0 25.29 6.86M255 359.76a13.88 13.88 0 0 1-14.28-14.29v-42.84l5.32-29.69L269.3 283v62.45a13.88 13.88 0 0 1-14.3 14.31" class="a"/><path fill="#fff" d="M318.59 190.33A19.6 19.6 0 0 1 299.27 171a18.9 18.9 0 0 1 5.73-13.86 19.1 19.1 0 0 1 27.3 0 19.16 19.16 0 0 1 5.6 13.87 18.8 18.8 0 0 1-5.6 13.58 18.43 18.43 0 0 1-13.71 5.74m59.09 0A19.6 19.6 0 0 1 358.35 171a18.93 18.93 0 0 1 5.74-13.87 19.11 19.11 0 0 1 27.31 0A19.16 19.16 0 0 1 397 171a18.8 18.8 0 0 1-5.6 13.58 18.43 18.43 0 0 1-13.72 5.75" class="a" /></svg>