<?xml version="1.0" encoding="UTF-8"?><svg id="_0" xmlns="http://www.w3.org/2000/svg" viewBox="0 0 61.7 33.41">    <path d="M22,2.44c-4.42,1.27-11.81,6.75-14.33,9.41s-4.16,6.34-3.4,9.87c.66,3.06,3.05,5.6,5.91,7.08s6.13,2.02,9.36,2.22c12.46.75,25.17-3.59,34.38-11.74,2.29-2.03,4.5-4.57,4.52-7.58.02-2.76-1.89-5.28-4.33-6.71s-5.33-1.96-8.16-2.25C29.91,1.1,13.25,6.41,1.35,16.94"          fill="none" stroke="#181716" stroke-linecap="round" stroke-linejoin="round" />    <path d="M24.32,1.17c-4.42,1.27-13.36,7.26-15.87,9.92s-5.25,7.91-4.5,11.44c.66,3.06,3.05,5.6,5.91,7.08s8.09,1.85,11.32,2.04c12.46.75,23.09-3.83,32.3-11.99,2.29-2.03,4.01-5,4.04-8,.02-2.76-2.59-4.75-5.02-6.18s-6.49-2.2-9.33-2.48C27.11,1.36,13.25,5,1.35,15.53"          fill="none" stroke="#181716" stroke-linecap="round" stroke-linejoin="round" />    <path d="M24.38,2.88c-4.42,1.27-13.66,6.9-16.18,9.55s-4.68,6.91-3.92,10.44c.66,3.06,3.22,5.04,6.07,6.52s7.7,2.05,10.93,1.99c13.31-.28,24.31-3.77,33.52-11.93,2.29-2.03,4.5-4.95,4.53-7.95.02-2.76-2.15-5.41-4.58-6.85s-6.11-1.92-8.94-2.21C29.76.81,13.85,5.27,1.96,15.8"          fill="none" stroke="#181716" stroke-linecap="round" stroke-linejoin="round" />    <path d="M24.12,2.77c-4.42,1.27-13.66,6.9-16.18,9.55s-4.68,6.91-3.92,10.44c.66,3.06,3.22,5.04,6.07,6.52s7.7,2.05,10.93,1.99c13.31-.28,23.68-3.95,32.89-12.1,2.29-2.03,4.5-4.57,4.52-7.58.02-2.76-1.89-5.28-4.33-6.71s-5.33-1.96-8.16-2.25C29.91.98,13.6,5.16,1.7,15.69"          fill="none" stroke="#181716" stroke-linecap="round" stroke-linejoin="round" />    <path d="M21.45,1.61c-4.42,1.27-11.79,6.9-14.3,9.55s-3.63,7.03-2.88,10.56c.66,3.06,2.18,5.52,5.03,7s6.87,2.51,10.1,2.71c12.46.75,25-2.89,33.96-11.32,2.58-2.43,4.45-6.41,4.42-9.33-.03-2.76-2.09-5.13-4.53-6.57s-6.22-2.03-9.06-2.32C28.16.26,12.92,6.87,1.02,17.4"          fill="none" stroke="#181716" stroke-linecap="round" stroke-linejoin="round" />    <path d="M22.55,2.44c-4.42,1.27-11.81,6.75-14.33,9.41s-4.16,6.34-3.4,9.87c.66,3.06,3.05,5.6,5.91,7.08s6.13,2.02,9.36,2.22c12.46.75,25.17-3.59,34.38-11.74,2.29-2.03,3.95-4.57,3.98-7.58.02-2.76-1.89-5.28-4.33-6.71s-9.28-2.5-12.13-2.62C25.7,1.72,13.25,5.05,1.35,15.58"          fill="none" stroke="#181716" stroke-linecap="round" stroke-linejoin="round" />    <path d="M23.55,2.72c-4.42,1.27-13.63,6.81-16.15,9.46s-4.21,6.94-3.45,10.47c.66,3.06,2.61,4.76,5.47,6.24s7.76,2.62,10.99,2.82c12.46.75,24.47-3.44,33.68-11.6,2.29-2.03,4.06-5.09,4.09-8.09.02-2.76-1.89-5.28-4.33-6.71s-5.92-2.58-8.76-2.87C29.04.81,13.52,7.2,1.63,17.73"          fill="none" stroke="#181716" stroke-linecap="round" stroke-linejoin="round" /></svg>