<?xml version="1.0" encoding="utf-8"?><!-- Generator: Adobe Illustrator 28.0.0, SVG Export Plug-In . SVG Version: 6.00 Build 0)  --><svg version="1.1" id="_0" xmlns="http://www.w3.org/2000/svg" xmlns:xlink="http://www.w3.org/1999/xlink" x="0px" y="0px"	 viewBox="0 0 15.4 141.3" style="enable-background:new 0 0 15.4 141.3;" xml:space="preserve"><style type="text/css">	.st0{fill:none;stroke:#181716;stroke-linecap:round;stroke-linejoin:round;}</style><path class="st0" d="M4.4,4.3c2.2,8.5,5.3,32.7,5.5,55.2c0.2,24.7,2.6,55.2,1.6,78.3"/><path class="st0" d="M5.1,3.7c2.2,8.6,4,27.5,4.1,50c0.2,24.7,3.6,62.6,2.5,85.6"/><path class="st0" d="M4.6,2.5c2.2,8.6,5.2,42.4,5.3,64.8c0.2,24.7,1.6,46.1,0.6,69.2"/><path class="st0" d="M3.7,4.3C6,12.8,10,42.6,10.1,65c0.2,24.7,2.9,50,1.8,73.1"/><path class="st0" d="M5,5.5c2.2,8.6,4.3,28.8,4.5,51.2c0.2,24.7,2.6,58.5,1.5,81.6"/><path class="st0" d="M5,3.4c2.2,8.5,5.3,47.4,5.5,69.8c0.2,24.7,1.3,40.1,0.2,63.2"/><path class="st0" d="M6,6C8.2,14.5,9.2,31,9.3,53.5c0.2,24.7,2.7,62.3,1.7,85.4"/></svg>