<?xml version="1.0" encoding="UTF-8"?><svg id="_0" xmlns="http://www.w3.org/2000/svg" viewBox="0 0 141.33 15.39">    <path d="M8.3,11.21c8.55-2.21,27.16-6.22,49.62-6.36,24.73-.16,53.19-2,75.09,1.27-29.54.7-59.09,1.4-88.63,2.1,19.12.88,38.24,1.77,57.36,2.65"          fill="none" stroke="#181716" stroke-linecap="round" stroke-linejoin="round" />    <path d="M8.54,9.53c11.1-1.38,29.66-4.16,52.12-4.31,24.73-.16,55.4-2.05,77.3,1.21-29.54.7-64.76,2.01-94.31,2.71,19.12.88,40.69,1.66,60.35.61"          fill="none" stroke="#181716" stroke-linecap="round" stroke-linejoin="round" />    <path d="M7.88,10.53c8.55-2.21,40.31-6.49,62.77-6.64,24.73-.16,44.36-1.53,66.26,1.73-29.54.7-57.7,2.39-87.24,3.09,19.12.88,32.56.16,51.68,1.05"          fill="none" stroke="#181716" stroke-linecap="round" stroke-linejoin="round" />    <path d="M5.78,10.31c8.55-2.21,29.67-5.32,52.14-5.47,24.73-.16,52.24-1.39,74.14,1.88-29.54.7-59.58-.17-88.45,2.87,19.12.88,39.24-.61,58.36.28"          fill="none" stroke="#181716" stroke-linecap="round" stroke-linejoin="round" />    <path d="M6.22,9.81c9.99-.94,24.4-3.42,43.73-4.76,24.67-1.71,65.72-2.53,87.62.73-29.54.7-58.36.82-87.79,2.68,18.28,2.78,30.75,2.75,50.52,1.63"          fill="none" stroke="#181716" stroke-linecap="round" stroke-linejoin="round" />    <path d="M10.75,11.21c8.55-2.21,30.04-5.52,52.84-6.43,24.71-.98,47.83-.94,69.73,2.33-32.58-1.27-60.01,1.34-89.56,2.04,19.12.88,40.42,2.43,59.41,2.71"          fill="none" stroke="#181716" stroke-linecap="round" stroke-linejoin="round" />    <path d="M7.55,10.53c8.55-2.21,27.72-4.97,50.37-5.69,24.72-.78,53.19-2,75.09,1.27-29.54.7-60.58,2.39-90.12,3.09,19.12.88,40.79.44,59.91,1.33"          fill="none" stroke="#181716" stroke-linecap="round" stroke-linejoin="round" /></svg>