<?xml version="1.0" encoding="UTF-8"?><svg id="_0" xmlns="http://www.w3.org/2000/svg" viewBox="0 0 141.33 15.39">    <path d="M4.27,11.53c8.55-2.21,32.69-5.32,55.16-5.47,24.73-.16,55.21-2.65,78.29-1.58" fill="none" stroke="#181716"          stroke-linecap="round" stroke-linejoin="round" />    <path d="M3.72,10.87c8.55-2.21,27.5-3.99,49.97-4.14,24.73-.16,62.56-3.58,85.64-2.51" fill="none" stroke="#181716"          stroke-linecap="round" stroke-linejoin="round" />    <path d="M2.56,11.31c8.55-2.21,42.36-5.19,64.82-5.34,24.73-.16,46.1-1.64,69.18-.57" fill="none" stroke="#181716"          stroke-linecap="round" stroke-linejoin="round" />    <path d="M4.27,12.19c8.55-2.21,38.32-6.26,60.79-6.4,24.73-.16,49.97-2.89,73.05-1.82" fill="none" stroke="#181716"          stroke-linecap="round" stroke-linejoin="round" />    <path d="M5.54,10.92c8.55-2.21,28.77-4.32,51.24-4.47,24.73-.16,58.47-2.62,81.55-1.55" fill="none" stroke="#181716"          stroke-linecap="round" stroke-linejoin="round" />    <path d="M3.44,10.98c8.55-2.21,47.38-5.32,69.85-5.47,24.73-.16,40.14-1.29,63.22-.22" fill="none" stroke="#181716"          stroke-linecap="round" stroke-linejoin="round" />    <path d="M5.98,9.98c8.55-2.21,25.07-3.22,47.54-3.37,24.73-.16,62.28-2.73,85.36-1.66" fill="none" stroke="#181716"          stroke-linecap="round" stroke-linejoin="round" /></svg>