<?xml version="1.0" encoding="UTF-8"?>
<svg id="Layer_1" xmlns="http://www.w3.org/2000/svg" version="1.1" viewBox="0 0 70.9 70.9">
  <!-- Generator: Adobe Illustrator 30.0.0, SVG Export Plug-In . SVG Version: 2.1.1 Build 123)  -->
  <defs>
    <style>
      .st0 {
        fill: none;
        stroke: #000;
        stroke-linecap: round;
        stroke-miterlimit: 10;
        stroke-width: .6px;
      }
    </style>
  </defs>
  <path class="st0" d="M11.56,20.01c.14-.04-.29,24.71.57,34.53.17,1.97-.71,5.36,24.91,4.09,12.12-.6,23.84-.31,23.84-.31"/>
  <path class="st0" d="M21.25,31.52s12.2-.59,16.82-2.01,13.27-5.08,17.91-10.44c3.23-3.73,3.57-4.33,3.06-5.45-.69-1.5-6.67,2.36-5.52,3.51s5.54-4.15,7.37-3.05c1.1.66-2.97,6.46-2.97,6.46"/>
  <path class="st0" d="M21.25,37.09s10.44.42,14.13,2.14c9.39,3.27,12.62,8.55,11.36,9.44s-6.56-2.01-5.49-3.4,6.3,4.1,7.42,3.02c1.02-.99-3.02-6.63-3.02-6.63"/>
</svg>