<?xml version="1.0" encoding="UTF-8"?>
<svg id="Logo_-_CMI" xmlns="http://www.w3.org/2000/svg" version="1.1" viewBox="0 0 250 245">
  <!-- Generator: Adobe Illustrator 29.1.0, SVG Export Plug-In . SVG Version: 2.1.0 Build 142)  -->
  <defs>
    <style>
      .st0 {
        fill-rule: evenodd;
      }

      .st0, .st1 {
        fill: #fff;
      }

      .st2 {
        fill: #9c9ea1;
      }

      .st3 {
        fill: #f59222;
      }
    </style>
  </defs>
  <g id="Group_7235">
    <path id="Path_3507" class="st0" d="M239.3,94.7c15.5,63.2-23.6,126.8-87.5,142.2S23.7,213.5,8.2,150.3C-7.3,87.2,31.9,23.5,95.7,8.1c63.8-15.4,128.1,23.4,143.6,86.6h0Z"/>
    <path id="Path_3508" class="st2" d="M123.8,245c-55.7,0-106.5-37.6-120.2-93.6-7.8-31.4-2.7-64.6,14.3-92.2C34.9,31.1,62.5,11,94.5,3.5c66.3-15.9,133.3,24.5,149.4,90.1,7.8,31.4,2.7,64.6-14.3,92.2-17.1,28.1-44.7,48.2-76.7,55.8-9.6,2.3-19.4,3.5-29.2,3.5h0ZM123.7,9.6c-9.1,0-18.1,1.1-27,3.2-29.5,7-55,25.5-70.8,51.4-15.6,25.4-20.3,56-13.1,84.9,14.9,60.5,76.7,97.8,137.8,83.1,29.5-7,55-25.5,70.8-51.4,15.6-25.4,20.3-56,13.1-84.9-12.7-51.6-59.5-86.3-110.9-86.3h0Z"/>
    <path id="Path_3509" class="st3" d="M217,141l-11.6-48.5c-2.8-11.6-12.1-16-21.7-13.7-8.6,2.1-14.6,8.9-13.8,18.7.3,1.1.7,2.2.9,3.4l11.6,48.5c1.7,7-1.5,11.5-7.1,12.9,0,0-.1,0-.2,0h-.2c-5.6,1.4-10.5-1.2-12.2-8.1l-11.6-48.5c-.3-1.2-.5-2.3-.7-3.4-3.7-9.1-12-12.4-20.6-10.3-9.5,2.3-16,10.5-13.2,22.1l11.6,48.5c1.7,7-1.5,11.5-7.1,12.9s-10.5-1.2-12.2-8.2l-11.6-48.5c-5.5-23,6.5-40.7,27.9-45.9,11-2.7,21.2-1.3,29.4,3.8,4.9-8.3,13.5-14.2,24.5-16.9,12.4-3,24.4-1.4,33.4,5.1-19.7-29.3-52.7-46.8-88-46.7-58.4,0-105.7,46.8-105.7,104.6s0,3.7.1,5.5c3.7-17.5,17.1-31.3,34.5-35.7,8.5-2.1,17.4-1.7,25.7,1.2l3.9,1.5c5.2,2.2,7.7,8.2,5.7,13.5-1.9,5.1-7.6,7.8-12.8,5.8-.1,0-.2,0-.3-.1l-2.4-.8c-4.8-1.8-10-2-15-.8-14.1,3.4-22.8,17.9-19.5,32.4,3.7,14.4,17.9,23.3,32.1,19.9,5-1.2,9.5-3.9,13-7.6l1.7-1.8c3.5-4.2,9.8-4.7,13.9-1.2,0,0,.2.2.3.3,4.2,3.8,4.7,10.2,1,14.6l-2.8,3.1c-6.1,6.3-13.8,10.8-22.3,12.9-16,3.8-32.8-1.1-44.2-13,18.6,34,54.3,55.2,93.1,55.1,49,0,90.2-33,102.2-77.8-4.5.2-8.3-2.6-9.7-8.5h0Z"/>
    <path id="Path_3510" class="st1" d="M212.6,64.8c-9-6.4-21-8.1-33.4-5.1-11,2.7-19.5,8.6-24.5,16.9-8.1-5.1-18.4-6.5-29.4-3.8-21.4,5.2-33.5,22.9-27.9,45.9l11.6,48.5c1.7,7,6.6,9.6,12.2,8.2s8.8-5.9,7.1-12.9l-11.6-48.5c-2.8-11.6,3.7-19.8,13.2-22.1,8.5-2.1,16.9,1.2,20.6,10.3.2,1.1.4,2.3.7,3.4l11.6,48.5c1.7,7,6.6,9.6,12.2,8.2h.2c0,0,.1,0,.2,0,5.6-1.4,8.8-5.9,7.1-12.9l-11.6-48.5c-.3-1.2-.6-2.3-.9-3.4-.9-9.8,5.2-16.6,13.8-18.7,9.5-2.3,18.9,2,21.7,13.7l11.6,48.5c1.4,5.9,5.2,8.7,9.7,8.5,7.7-29,2.6-59.9-14.2-84.8h0Z"/>
    <path id="Path_3511" class="st1" d="M19.2,150.4c0-.1,0-.3,0-.4s0-.3-.1-.4l.2.8"/>
    <path id="Path_3512" class="st1" d="M75.7,185.3c8.5-2.1,16.3-6.5,22.3-12.9l2.8-3.1c3.6-4.3,3.2-10.8-1-14.6-4-3.7-10.3-3.4-14,.6,0,0-.2.2-.3.3l-1.7,1.8c-3.5,3.8-8,6.4-13,7.6-14.1,3.4-28.4-5.5-32.1-19.9,0,.1,0,.3,0,.4l-.2-.8c0,.1,0,.3,0,.4-3.2-14.5,5.4-29,19.5-32.4,5-1.2,10.2-.9,15,.8l2.4.8c5.1,2.1,10.9-.3,12.9-5.4,0-.1,0-.2.1-.3,2-5.3-.5-11.2-5.7-13.5l-3.9-1.5c-8.3-2.9-17.2-3.3-25.7-1.2-17.8,4.3-30.6,18.6-34.5,35.7.8,15.4,5.1,30.5,12.4,44,11.4,11.9,28.2,16.8,44.2,13h0Z"/>
    <path id="Path_3513" class="st1" d="M38.9,145.6c0-.1,0-.3,0-.4s0-.3,0-.4l.2.8Z"/>
  </g>
</svg>