<?xml version="1.0" encoding="UTF-8"?>
<svg id="Logo_-_CMI" xmlns="http://www.w3.org/2000/svg" version="1.1" viewBox="0 0 248.8 245">
  <path fill="currentColor" d="M217,141l-11.6-48.5c-2.8-11.6-12.1-16-21.7-13.7-8.6,2.1-14.6,8.9-13.8,18.7.3,1.1.7,2.2.9,3.4l11.6,48.5c1.7,7-1.5,11.5-7.1,12.9,0,0-.1,0-.2,0h-.2c-5.6,1.4-10.5-1.2-12.2-8.1l-11.6-48.5c-.3-1.2-.5-2.3-.7-3.4-3.7-9.1-12-12.4-20.6-10.3-9.5,2.3-16,10.5-13.2,22.1l11.6,48.5c1.7,7-1.5,11.5-7.1,12.9s-10.5-1.2-12.2-8.2l-11.6-48.5c-5.5-23,6.5-40.7,27.9-45.9,11-2.7,21.2-1.3,29.4,3.8,4.9-8.3,13.5-14.2,24.5-16.9,12.4-3,24.4-1.4,33.4,5.1-19.7-29.3-52.7-46.8-88-46.7-58.4,0-105.7,46.8-105.7,104.6s0,3.7.1,5.5c3.7-17.5,17.1-31.3,34.5-35.7,8.5-2.1,17.4-1.7,25.7,1.2l3.9,1.5c5.2,2.2,7.7,8.2,5.7,13.5-1.9,5.1-7.6,7.8-12.8,5.8-.1,0-.2,0-.3-.1l-2.4-.8c-4.8-1.8-10-2-15-.8-14.1,3.4-22.8,17.9-19.5,32.4,3.7,14.4,17.9,23.3,32.1,19.9,5-1.2,9.5-3.9,13-7.6l1.7-1.8c3.5-4.2,9.8-4.7,13.9-1.2,0,0,.2.2.3.3,4.2,3.8,4.7,10.2,1,14.6l-2.8,3.1c-6.1,6.3-13.8,10.8-22.3,12.9-16,3.8-32.8-1.1-44.2-13,18.6,34,54.3,55.2,93.1,55.1,49,0,90.2-33,102.2-77.8-4.5.2-8.3-2.6-9.7-8.5h0Z"/>
  <path fill="currentColor" d="M123.8,245c-55.7,0-106.5-37.6-120.2-93.6-7.8-31.4-2.7-64.6,14.3-92.2C34.9,31.1,62.5,11,94.5,3.5c66.3-15.9,133.3,24.5,149.4,90.1,7.8,31.4,2.7,64.6-14.3,92.2-17.1,28.1-44.7,48.2-76.7,55.8-9.6,2.3-19.4,3.5-29.2,3.5h0ZM123.7,9.6c-9.1,0-18.1,1.1-27,3.2-29.5,7-55,25.5-70.8,51.4-15.6,25.4-20.3,56-13.1,84.9,14.9,60.5,76.7,97.8,137.8,83.1,29.5-7,55-25.5,70.8-51.4,15.6-25.4,20.3-56,13.1-84.9-12.7-51.6-59.5-86.3-110.9-86.3h0Z"/>
</svg>