<?xml version="1.0" encoding="UTF-8"?>
<svg id="Layer_1" xmlns="http://www.w3.org/2000/svg" version="1.1" viewBox="0 0 70.9 70.9">
  <!-- Generator: Adobe Illustrator 30.0.0, SVG Export Plug-In . SVG Version: 2.1.1 Build 123)  -->
  <defs>
    <style>
      .st0 {
        fill: none;
        stroke: #000;
        stroke-linecap: round;
        stroke-miterlimit: 10;
        stroke-width: .6px;
      }
    </style>
  </defs>
  <path class="st0" d="M12.83,36.31s.54-14.03,1.84-15.11,42.5-2.34,43.07.07-2.07,18.54,0,17.41,3.84-2.86,4.81-2.6-.61,19.97-1.3,21.96c-.36,1.02-13.74.93-26.94.79-9.48-.1-18.87-.14-23.29-.23-1.41-.03-2.16-.28-2.4-.26-.39.03-.81-.58-.84-1.72-.06-1.9.5-5.13.81-8.38.52-5.33,1.06-10.89,1.6-11.18,1.06-.58,19.62,11.63,19.39,12.42s-18.27,8.31-18.35,6.95c.57-1.39,23.43-18.13,25.15-18.45s23.25,17.22,23.67,18.23c.46,1.09-18.65-6.33-18.09-6.93.55-.57,13.56-10.5,13.56-10.5"/>
</svg>