<?xml version="1.0" encoding="UTF-8"?>
<svg id="Layer_1" xmlns="http://www.w3.org/2000/svg" version="1.1" viewBox="0 0 103 24">
  <path fill="currentColor" fill-rule="evenodd" d="M4.7.3l-.8,4c.9-1.4,2-2.8,3.2-4h-2.4ZM17.7,9.9c-.9.9-1.3,1.9-1.3,2.9s.2,1.1.5,1.6h.8l1-5.3c-.4.2-.7.5-1,.8ZM4.4,15.2c0-2.2.5-4.3,1.4-6.5,1-2.2,2.5-4.4,4.3-6.3.8-.8,1.6-1.5,2.5-2.2h3.8c-.1,0-.2.1-.4.2-1.7.8-3.2,1.9-4.5,3.3-1.4,1.4-2.6,3-3.4,4.7-.8,1.6-1.3,3.3-1.4,4.9-.3,3.4.8,6.5,3,8.8.5.5,1,.9,1.5,1.3h-4c-.9-1-1.6-2.2-2.1-3.5-.6-1.5-.9-3-.9-4.7h0ZM10.9,5.6h1.9c.1-.1.2-.2.3-.3,2.1-2.1,4.6-3.4,7.2-3.8l.2-1.2h-2.1c-2.3.7-4.5,2.1-6.4,4-.4.4-.8.9-1.2,1.3ZM25.1,10.8c0,1.5-.7,3.1-2.1,4.4-.8.8-1.6,1.3-2.5,1.7l.2-1.2c.6-.3,1.2-.7,1.8-1.2.8-.9,1.3-1.9,1.4-3,0-1.1-.3-2.1-1-2.8-.2-.2-.4-.4-.7-.5l.3-1.3c.5.2,1,.5,1.4.9.8.8,1.2,1.9,1.2,3h0ZM25.8,10.8c0,1.7-.8,3.5-2.3,5-.9,1-2,1.6-3.2,2l-.3,1.4c1.5-.4,3-1.3,4.3-2.6,3.3-3.3,3.8-7.9,1.1-10.5-.7-.7-1.5-1.2-2.5-1.4l-.3,1.5c.7.2,1.2.6,1.7,1.1,1,1,1.5,2.2,1.5,3.6h0ZM22.4,9.3c.5.6.8,1.3.8,2.2,0,.9-.5,1.8-1.2,2.5-.3.3-.7.6-1,.8l1.2-5.8c.1,0,.2.2.3.3ZM1.3,21.7c-.2-.6-.4-1.2-.6-1.9L0,23.4h2.1c-.3-.5-.6-1.1-.8-1.7h0ZM5.1,8.4c-1,2.3-1.5,4.6-1.5,6.8s.3,3.4.9,5c.4,1.1,1,2.2,1.8,3.2h-3.4c-.4-.6-.7-1.3-1-2-.4-1.1-.7-2.3-.9-3.5L3.4,6.6c1.1-2.1,2.6-4.1,4.4-5.9.1-.1.3-.3.4-.4h3.2c-.6.5-1.2,1-1.8,1.6-1.9,2-3.4,4.2-4.5,6.5h0ZM10,14.1v.3h1.7c0-.3,0-.5,0-.8,0-1.6.5-3.2,1.3-4.6h-1.6c-.9,1.6-1.4,3.4-1.4,5.1h0ZM16.2,8.9h1.4c-.2.1-.3.3-.5.4-1,1-1.6,2.2-1.6,3.5s.1,1.1.4,1.6h-1.3c-.1-.4-.2-.8-.2-1.2,0-1.4.6-3,1.8-4.2h0ZM12.4,13.6c0,.3,0,.5,0,.8h1.4c0-.4-.1-.8-.1-1.2,0-.9.2-1.7.6-2.6.2-.6.6-1.1,1-1.6h-1.4c-.9,1.4-1.5,3.1-1.5,4.7ZM19.9,20c1.8-.4,3.5-1.4,5-2.9,3.6-3.6,4.1-8.6,1.1-11.6-.8-.8-1.8-1.3-2.9-1.6l.3-1.7c1.5.3,2.8.9,3.9,2,1.4,1.4,2.2,3.2,2.3,5.2v.3c0,.4,0,.9,0,1.3-.4,2.5-1.6,4.9-3.7,7-1.8,1.8-4,3-6.3,3.5l.3-1.5h0ZM27.9,3.7c1,1,1.7,2.2,2.1,3.5,0,0,0,0,0,.1l.4-1.8h1c-.5-1.2-1.2-2.3-2.1-3.3-.9-.9-2-1.6-3.2-2.1h-2.2l-.2,1.2c.4,0,.7.1,1,.3,1.2.4,2.3,1,3.2,2h0ZM34.8,5.6h-2.6c-.5-1.4-1.3-2.7-2.4-3.8-.6-.6-1.2-1.1-2-1.5h4.1c1.4,1.5,2.4,3.4,2.8,5.4h0ZM19.9,3.9l.3-1.6c-2.2.4-4.4,1.5-6.3,3.3h2.1c1.2-.9,2.6-1.5,4-1.8ZM17.4,5.6c.8-.4,1.6-.8,2.4-.9l-.2.9s-2.2,0-2.2,0ZM7.5,13.4c-.3,3.1.7,6,2.8,8.1.7.8,1.6,1.4,2.6,1.8h3.1l.2-1c-1.8-.3-3.3-1.1-4.6-2.3-.6-.6-1.1-1.4-1.5-2.2h-1.8l.7-3.5h.3v-.3c0-1.7.4-3.5,1.3-5.1h-.4l.6-3c-1.8,2.3-2.9,4.9-3.1,7.5h0ZM17.1,17.9h0l-.3,1.4c-1-.2-1.9-.7-2.6-1.4h2.9ZM16.6,20.1c-1.2-.3-2.3-.9-3.2-1.8-.1-.1-.2-.2-.3-.4h-2.2c.3.6.7,1.2,1.2,1.7,1.1,1.1,2.6,1.9,4.2,2.1l.3-1.6h0ZM27.3,20.8l-.5,2.5h-3.2c1.3-.7,2.6-1.5,3.7-2.5ZM32,9.8h-1.7c0,.5,0,.9-.1,1.4-.2,1.4-.7,2.7-1.4,4h1.7c.7-1.5,1.2-3,1.4-4.5,0-.3,0-.6,0-.9h0ZM32.9.3h3.5c.3.6.7,1.3.9,1.9.4,1.1.7,2.2.9,3.4h-2.8c-.5-2-1.3-3.8-2.6-5.4h0ZM37.3.3c.3.5.5,1.1.8,1.6.3.7.5,1.4.7,2.1l.8-3.8s-2.2,0-2.2,0ZM32.8,9.8h2.3c0,.2,0,.4,0,.5-.2,1.7-.6,3.3-1.3,4.9h-2.3c.7-1.4,1.1-2.9,1.3-4.4,0-.3,0-.7,0-1ZM35.8,10.4c-.2,1.6-.6,3.3-1.2,4.9h1.7l1.1-5.4h-1.5c0,.2,0,.4,0,.6h0ZM19.2,23.4l.2-1c2.5-.4,5-1.8,7-3.8.7-.7,1.3-1.5,1.8-2.2l-.6,3.1h0c0,.1-.1.2-.2.2-1.6,1.6-3.6,2.9-5.6,3.6h-2.5Z"/>
  <path fill="currentColor" d="M61.5,5.7l-1.8.7c-.5-2.4-2.2-4.5-5.6-4.5s-5.2,1.9-5.2,4.6,1.3,3.5,3.6,4.1l3.5.8c3.6.9,5.8,2.9,5.8,6.2s-3,6.5-7.6,6.5-7.8-3.4-8.2-6.9l1.9-.6c.3,3,2.5,5.6,6.3,5.6s5.6-2,5.6-4.5-1.5-3.7-4.1-4.3l-3.5-.8c-3.1-.7-5.3-2.7-5.3-6,0-3.6,3.4-6.5,7.2-6.5s6.8,2.7,7.5,5.7h0ZM81.2,23.6h-13.5V.4h13.5v1.9h-11.5v8.7h10.5v1.9h-10.5v8.8h11.5v1.9h0ZM103,2.3h-8.1v21.2h-2.1V2.3h-8.1V.4h18.3v1.9Z"/>
</svg>