<?xml version="1.0" encoding="UTF-8"?>
<svg id="Layer_1" xmlns="http://www.w3.org/2000/svg" version="1.1" viewBox="0 0 70.9 70.9">
  <!-- Generator: Adobe Illustrator 30.0.0, SVG Export Plug-In . SVG Version: 2.1.1 Build 123)  -->
  <defs>
    <style>
      .st0 {
        fill: none;
        stroke: #000;
        stroke-miterlimit: 10;
        stroke-width: .6px;
      }
    </style>
  </defs>
  <path class="st0" d="M50.08,13.27s-18.3,1.81-19.95,2.86c-.88.56-4.08,8.25-6.82,15.34-2.37,6.16-4.51,11.81-3.02,12.48,3.19,1.43,5.61-.93,8.63-.27,2.86,1.37-1.59,15.83.99,15.23,1.19-.28,5.84-7.18,10.61-13.74,5.62-7.73,11.26-15.3,9.51-15.72-3.24-.77-11.6,1.76-13.63.93s3.79-10.88,1.87-11.65c-.95-.38-3.63,4.29-6.1,8.74s-4.81,8.87-2.53,9.73c4.18,1.04,12.09-1.48,12.09-1.48"/>
</svg>