<?xml version="1.0" encoding="UTF-8"?>
<svg id="Layer_1" xmlns="http://www.w3.org/2000/svg" version="1.1" viewBox="0 0 85 395">
  <!-- Generator: Adobe Illustrator 30.0.0, SVG Export Plug-In . SVG Version: 2.1.1 Build 123)  -->
  <defs>
    <style>
      .st0 {
        fill: none;
        stroke: #000;
        stroke-linecap: round;
        stroke-linejoin: round;
        stroke-width: 5px;
      }
    </style>
  </defs>
  <path class="st0" d="M9.68,16.59c.9,9.8,62.23-12.06,62.73,5.04.4,14.4-58.07,43.09-57.87,62.19.1,11.9,35.07,6.6,35.17,20.1,2.2,15.6-8.06,28.17-7.66,53.37.2,10.6,11.18,24.94,10.94,35.54s-9.38,60.28-8.98,68.18c-1.76,60.36-15.39,115-3.27,116.62,2.02,1.64,11.34-18.99,3.22-24.13-2.76-1.75-4.19,28.34-9.56,28.35-5.28.02-10.17-23.85-10.67-24.15"/>
</svg>