<?xml version="1.0" encoding="UTF-8"?>
<svg id="Layer_1" xmlns="http://www.w3.org/2000/svg" version="1.1" viewBox="0 0 3600 1193">
  <!-- Generator: Adobe Illustrator 30.0.0, SVG Export Plug-In . SVG Version: 2.1.1 Build 123)  -->
  <defs>
    <style>
      .st0 {
        fill: none;
        stroke: #000;
        stroke-linecap: round;
        stroke-miterlimit: 10;
        stroke-width: 5px;
      }
    </style>
  </defs>
  <path class="st0" d="M281.25,246.89c6.24,44.01,59.89,158.45,177.78,210,135.04,59.06,311.16-21.38,230.45-74.16-86.64-56.66-123.7,240.21-59.95,341.34,43.36,68.78,115.27,194.08,322.28,228.72,171.92,28.76,379.81-89.8,565.56-103.96,198.82-15.16,432.3,153.83,263.37,251.94-202.61,117.68-266.05-366.29-139.66-590.85,128.13-227.64,321.92-406.96,570.41-367.07,230.86,37.06-55.21,578.52,77.28,642.57,126.6,61.21,172.98-66.1,334.76-36.39,126.09,23.16,92.33,243.3,266.14,315.01,183.49,75.69,465.37,23.89,497.98-362.83,23.1-273.99-7.29-311.84-10.4-327.48"/>
</svg>