<?xml version="1.0" encoding="UTF-8"?>
<svg id="Layer_1" xmlns="http://www.w3.org/2000/svg" version="1.1" viewBox="0 0 70.9 70.9">
  <!-- Generator: Adobe Illustrator 30.0.0, SVG Export Plug-In . SVG Version: 2.1.1 Build 123)  -->
  <defs>
    <style>
      .st0 {
        fill: none;
        stroke: #000;
        stroke-linecap: round;
        stroke-miterlimit: 10;
        stroke-width: .6px;
      }
    </style>
  </defs>
  <path class="st0" d="M29.28,30.48c1.09-14.02,12.31-12.93,14.41-12.91s12.16,2.57,10.96,13.51c-1.2,10.94-9.01,11.47-12.09,11.71s-6.17-1.46-7.73-1.8c-1.6.13-12.74,15.73-13.81,16.74s-5.01,2.42-7.21-.68-.84-5.67,0-6.61,13.57-10.62,13.74-11.19-2.65-3.57-2.59-9.18c1.52-17.14,16.82-16.81,17.45-16.8,1.46.02,16.72,1.61,16.61,17.14-.68,15.82-16.7,16.78-17.14,16.5"/>
</svg>