<?xml version="1.0" encoding="UTF-8"?>
<svg id="Layer_1" xmlns="http://www.w3.org/2000/svg" version="1.1" viewBox="0 0 86 35.2">
  <path fill="currentColor" fill-rule="evenodd" d="M8.7,26.4c0,5.3,3,8.7,8.5,8.7,1.7,0,3.5-.2,5.2-.6l-.2-5.5c-1,.5-2.1.8-3.2.7-2.7,0-3.3-2.1-3.3-4.4V0l-7,2.2v24.2ZM32.1,18.4c.3-3.6,2.3-6.3,6.2-6.3s5.5,2.9,5.7,6.3h-11.9ZM48.7,27.3c-2.7,1.7-5.8,2.6-8.9,2.7-4.3,0-7.4-2.5-7.7-6.8h18.6c0-9.4-2.8-16.2-12.8-16.2s-12.5,6.4-12.5,14.2,5.2,13.9,14,13.9c3.2.1,6.4-.6,9.2-2.2v-5.7h0ZM54.5,2.2h7v32.3h-7V2.2ZM85.5,7.9c-2.2-.6-4.5-.9-6.8-.9-8.4,0-13,6.2-13,13.9s4.4,14.2,13.3,14.2c2.4,0,4.7-.2,7-.9l-.3-5.8c-1.7.7-3.5,1.2-5.4,1.2-4.9,0-7.2-3.8-7.2-8.8s2.8-8.5,7.1-8.5c1.6,0,3.3.3,4.8,1l.6-5.5h0ZM17.1,12.5h7.5v-4.6h-7.5v4.6Z"/>
  <circle fill="currentColor" cx="3.7" cy="10.1" r="3.7"/>
</svg>